<svg width="273" height="204" viewBox="0 0 273 204" fill="none" xmlns="http://www.w3.org/2000/svg">
<path d="M124.634 107.653L161.353 98.8164V174.856H122.673V110.142C122.673 108.959 123.484 107.93 124.634 107.653Z" fill="#D22F3F"/>
<path d="M122.295 108.355H130.718V175.011H120.375V110.275C120.375 109.215 121.235 108.355 122.295 108.355Z" fill="#E75151"/>
<path d="M122.358 108.126L167.041 97.782V104.608L120.375 117.089V110.62C120.375 109.429 121.197 108.395 122.358 108.126Z" fill="#D22F3F"/>
<path d="M238.511 114.395L201.913 107.436V174.857H240.593V116.91C240.593 115.681 239.719 114.625 238.511 114.395Z" fill="#B8313E"/>
<path d="M240.965 114.102H232.542V175.011H242.885V116.022C242.885 114.961 242.025 114.102 240.965 114.102Z" fill="#E75151"/>
<path d="M240.751 113.991L196.246 106.976V113.802L242.912 121.157V116.52C242.912 115.26 241.995 114.187 240.751 113.991Z" fill="#D22F3F"/>
<path d="M230.939 174.295H224.002L231.793 194.775H232.962L230.939 174.295Z" fill="#312E63"/>
<path d="M224.002 174.295H228.64L230.828 192.001L224.002 174.295Z" fill="#232056"/>
<path d="M132.845 174.295H139.948L131.971 194.775H130.774L132.845 174.295Z" fill="#312E63"/>
<path d="M139.948 174.295H135.49L133.121 191.788L139.948 174.295Z" fill="#232056"/>
<path d="M130.718 139.155H232.541V175.011H130.718V139.155Z" fill="#E75151" stroke="#D22F3F" stroke-width="0.213335"/>
<path d="M130.948 157.072H232.541" stroke="#D22F3F" stroke-width="0.213335"/>
<path d="M131.502 152.877V142.963C131.502 141.154 133.091 139.753 134.889 139.955C139.836 140.51 149.291 141.404 157.036 141.153C182.181 140.339 218.181 139.752 228.752 139.59C230.418 139.564 231.778 140.908 231.778 142.574V152.877C231.778 154.526 230.441 155.864 228.791 155.864H134.488C132.839 155.864 131.502 154.526 131.502 152.877Z" fill="#D22F3F"/>
<path d="M134.488 158.622H228.791C230.441 158.622 231.778 159.959 231.778 161.609V171.725C231.778 173.374 230.441 174.711 228.791 174.711H134.488C132.839 174.711 131.502 173.374 131.502 171.725V161.609C131.502 159.959 132.839 158.622 134.488 158.622Z" fill="#D22F3F"/>
<path d="M145.69 76.636H217.799C219.213 76.636 220.359 77.7821 220.359 79.196V134.328H143.13V79.196C143.13 77.7821 144.276 76.636 145.69 76.636Z" fill="#E75151"/>
<path d="M145.69 76.636H217.799C219.213 76.636 220.359 77.7821 220.359 79.196V81.4628H143.13V79.196C143.13 77.7821 144.276 76.636 145.69 76.636Z" fill="#D22F3F"/>
<path d="M143.13 133.179H220.359L232.771 138.81C232.771 138.81 183.784 140.879 154.163 140.879C144.379 140.879 130.948 139.385 130.948 139.385L143.13 133.179Z" fill="#E75151" stroke="#D22F3F" stroke-width="0.640005"/>
<path d="M120.074 106.339C117.494 94.2293 111.842 97.422 110.721 90.8799C133.399 75.3666 158.196 90.8801 172.321 85.405C168.128 98.6093 176.044 126.306 177.012 134.68C172.174 130.493 143.617 134.68 134.91 134.68C136.2 121.475 123.299 121.475 120.074 106.339Z" fill="#E85253"/>
<path d="M134.91 134.68C136.2 121.475 123.299 121.475 120.074 106.339C122.273 105.983 128.016 107.067 133.399 114.244C140.128 123.216 141.624 108.014 150.097 118.979C156.875 127.751 168.054 118.148 172.797 112.25C174.368 121.722 176.535 130.551 177.012 134.68C172.174 130.493 143.617 134.68 134.91 134.68Z" fill="#EE6061"/>
<path d="M172.321 85.4046C168.128 98.6089 176.044 126.306 177.012 134.679C174.336 132.363 164.401 132.61 154.583 133.292C146.891 124.592 144.484 120.538 142.127 116.568L142.095 116.515C140.201 113.325 129.454 92.1508 132.327 83.9912C143.36 83.9912 165.152 88.1834 172.321 85.4046Z" fill="#EE6061"/>
<path d="M121.38 106.569C118.947 95.1989 114.399 96.9777 112.56 92.0541C133.948 77.4881 157.334 92.0542 170.654 86.9135C166.7 99.3114 174.166 125.317 175.079 133.179C170.516 129.248 144.274 133.179 136.062 133.179C137.278 120.781 124.422 120.781 121.38 106.569Z" stroke="white" stroke-width="0.213335"/>
<path d="M89.4002 131.759C86.2456 132.487 79.2568 131.614 76.5389 122.295C82.1202 122.78 90.6135 123.023 89.4002 131.759Z" fill="#2392D5"/>
<path d="M94.9832 160.636C94.4979 149.474 95.7598 131.274 82.3646 126.421" stroke="#027AC3" stroke-width="0.213335"/>
<path d="M94.6906 127.201C93.4306 122.552 89.8734 117.306 85.277 132.244C89.645 132.972 109.686 130.651 94.6906 127.201Z" fill="#3DB7E0"/>
<path d="M87.7892 121.732C84.7365 123.673 77.0178 124.209 70.5638 110.822C77.131 110.633 91.3554 111.363 87.7892 121.732Z" fill="#3DB7E0"/>
<path d="M96.1932 118.171C93.9283 120.435 88.4279 119.918 84.5453 99.728C93.5239 102.64 105.9 109.92 96.1932 118.171Z" fill="#3DB7E0"/>
<path d="M102.018 123.266C98.1352 120.678 94.0585 113.802 108.813 107.008C109.784 113.074 111.238 127.392 102.018 123.266Z" fill="#2392D5"/>
<path d="M102.503 115.258C99.5106 110.081 99.3974 98.8538 122.887 95.3594C119.005 99.7274 104.444 118.413 102.503 115.258Z" fill="#3DB7E0"/>
<path d="M108.814 121.567C105.902 118.736 104.98 112.394 124.587 109.677C121.432 114.287 113.667 125.45 108.814 121.567Z" fill="#3DB7E0"/>
<path d="M105.66 135.642C106.874 131.435 112.018 124.527 122.89 131.516C119.007 132.244 116.095 131.759 105.66 135.642Z" fill="#3DB7E0"/>
<path d="M96.4377 160.151C96.6804 149.312 96.6804 127.585 94.7391 127.391C92.9919 128.167 91.4227 129.17 90.8564 129.575" stroke="#027AC3" stroke-width="0.213335"/>
<path d="M98.3812 159.909C97.3297 146.724 95.7112 111.861 110.758 104.338" stroke="#027AC3" stroke-width="0.213335"/>
<path d="M114.152 115.501C104.252 118.995 103.232 146.724 103.96 160.151H104.688C104.032 144.135 104.931 119.869 114.152 115.501Z" fill="#027AC3"/>
<path d="M109.303 132.001C102.263 135.399 100.971 152.79 101.052 160.151H101.537C102.022 138.553 105.661 134.671 109.303 132.001Z" fill="#027AC3"/>
<path d="M77.2679 113.317C92.7985 119.141 92.3132 139.525 92.3132 160.151H93.7692C93.2839 142.679 94.4972 119.141 77.2679 113.317Z" fill="#027AC3"/>
<path d="M97.8945 159.665C97.8945 144.28 98.8506 113.468 91.0579 106.911C90.6123 106.554 90.1415 106.26 89.6439 106.036C90.1446 106.245 90.6153 106.539 91.0579 106.911C99.3033 113.532 98.8901 142.168 99.3505 159.665H97.8945Z" fill="#027AC3"/>
<path d="M103.96 115.743C98.8655 120.839 100.725 148.989 100.563 160.637H101.534C101.615 150.606 99.8362 119.869 103.96 115.743Z" fill="#027AC3"/>
<path d="M111.966 158.209H85.5156L91.0969 194.852H106.87L111.966 158.209Z" fill="#F4BD34"/>
<path d="M85.9222 160.879L85.5156 158.209H111.966L111.595 160.879M85.9222 160.879H111.595M85.9222 160.879L86.3288 163.548M111.595 160.879L111.224 163.548M86.3288 163.548H111.224M86.3288 163.548L86.8093 166.703M111.224 163.548L110.785 166.703M86.8093 166.703H110.785M86.8093 166.703L87.2529 169.615M110.785 166.703L110.38 169.615M87.2529 169.615H110.38M87.2529 169.615L87.6964 172.527M110.38 169.615L109.975 172.527M87.6964 172.527H109.975M87.6964 172.527L88.1769 175.681M109.975 172.527L109.536 175.681M88.1769 175.681H109.536M88.1769 175.681L88.6944 179.079M109.536 175.681L109.064 179.079M88.6944 179.079H109.064M88.6944 179.079L89.2119 182.476M109.064 179.079L108.591 182.476M89.2119 182.476H108.591M89.2119 182.476L89.7293 185.873M108.591 182.476L108.119 185.873M89.7293 185.873H108.119M89.7293 185.873L90.1359 188.543M108.119 185.873L107.748 188.543M90.1359 188.543H107.748M90.1359 188.543L90.6164 191.697M107.748 188.543L107.309 191.697M90.6164 191.697L91.0969 194.852H106.87L107.309 191.697M90.6164 191.697H107.309" stroke="#FFDD79" stroke-width="0.213335"/>
<path d="M258.699 112.893C256.403 111.826 252.999 112.198 251.373 112.403L250.213 101.713C253.583 102.037 255.277 102.513 260.065 100.948C264.18 99.6032 265.332 94.6019 267.234 93.0369C270.349 90.4729 272.701 91.4716 272.532 91.8349C271.639 93.5264 268.007 101.564 265.301 107.383C261.916 114.662 263.026 114.906 258.699 112.893Z" fill="#FECBB5"/>
<path d="M258.699 112.894C256.404 111.826 252.775 112.354 251.252 112.313L250.214 101.713C251.58 101.845 253.888 101.997 255.021 102.032L252.515 111.687C256.653 110.802 261.813 114.354 262.536 112.619C263.26 110.885 269.365 97.8601 272.328 91.5643C272.494 91.6569 272.567 91.7597 272.532 91.8351C271.64 93.5266 268.008 101.565 265.302 107.383C261.917 114.662 263.026 114.906 258.699 112.894Z" fill="#F1A089"/>
<path d="M206.511 135.516C206.459 132.985 205.535 128.612 204.635 127.242L214.083 124.869C215.275 128.037 214.325 127.874 217.838 131.485C220.857 134.588 225.855 133.42 228.097 134.439C231.771 136.108 231.909 138.659 231.508 138.667C229.597 138.61 220.781 138.887 214.365 139.019C206.339 139.184 206.608 140.287 206.511 135.516Z" fill="#FECBB5"/>
<path d="M206.511 135.516C206.459 132.985 205.535 128.612 204.635 127.242L214.083 124.869C215.143 127.689 214.508 127.87 216.832 130.421C214.483 130.459 209.235 130.421 207.029 129.961C207.029 131.485 206.799 136.075 208.063 139.224C206.499 139.095 206.568 138.321 206.511 135.516Z" fill="#F1A089"/>
<path d="M213.579 91.0017C206.23 93.959 161.859 113.08 145.084 120.422C145.084 130.88 148.876 141.885 162.437 139.845C178.642 137.407 208.347 105.732 211.74 106.862C221.968 112.952 239.896 113.527 249.32 120.193C252.768 118.469 251.504 104.908 254.837 100.656C220.934 92.2659 217.486 89.4293 213.579 91.0017Z" fill="#0B1F83"/>
<path d="M145.084 120.423C145.084 130.881 148.876 141.885 162.437 139.845C168.326 138.959 175.997 134.213 183.541 128.582C186.811 123.947 193.927 113.229 196.225 107.436C196.685 106.287 196.519 116.41 196.372 118.301C204.187 111.754 210.308 106.385 211.74 106.862C213.961 108.184 216.544 109.247 219.325 110.168C218.13 104.446 214.613 95.1622 213.004 91.2354C204.173 94.846 161.467 113.252 145.084 120.423Z" fill="#1A1454"/>
<path d="M252.538 100.084C250.814 103.988 250.355 115.136 248.631 117.434C244.379 113.527 219.095 109.62 211.97 104.908C210.315 103.813 173.24 135.593 162.437 138.006C151.635 140.419 147.038 132.232 146.693 119.719" stroke="#4B4FE2" stroke-width="0.42667"/>
<path d="M162.729 139.892C145.165 142.605 145.773 127.548 144.969 120.767C148.534 118.695 158.788 111.917 173.7 99.851C197.202 80.8352 201.512 81.3482 203.581 82.3806C210.132 85.65 214.843 94.7944 223.118 129.086C219.44 131.455 205.879 128.237 199.048 129.086C196.226 112.033 198.524 108.815 197.03 102.264C196.467 103.395 184.684 136.501 162.729 139.892Z" fill="#0B1F83"/>
<path d="M197.03 102.265C196.959 102.408 196.708 103.062 196.28 104.103C197.22 100.886 199.121 93.8751 199.213 91.5767C199.581 94.151 198.207 101.613 197.474 105.023C197.391 104.14 197.252 103.239 197.03 102.265Z" fill="#021575"/>
<path d="M222.745 127.548C217.257 129.272 203.925 126.284 200.707 126.858C198.524 120.078 201.052 104.218 197.489 100.196C195.712 98.1896 183.124 136.349 162.437 138.121C145.199 139.597 147.727 125.249 146.488 119.848" stroke="#4B4FE2" stroke-width="0.42667"/>
<rect x="171.705" y="97.3442" width="26.3541" height="2.86423" transform="rotate(-34.8537 171.705 97.3442)" fill="#F4BD34"/>
<path d="M173.343 99.6951L194.969 84.6342L194.636 84.1554L173.135 99.3965L173.343 99.6951Z" fill="#DB9C14"/>
<path d="M192.229 61.3988C192.432 61.4171 192.594 61.5773 192.615 61.7808L194.928 84.6246L192.076 84.3679L189.779 61.6879C189.752 61.4212 189.975 61.1959 190.242 61.22L192.229 61.3988Z" fill="#F4BD34"/>
<path d="M194.928 84.6244L192.645 61.8074C192.624 61.6038 192.462 61.4433 192.259 61.4249L191.938 61.3961L194.269 84.5651L194.928 84.6244Z" fill="#DB9C14"/>
<path d="M178.326 86.3049C177.29 86.7488 173.032 89.1745 171.22 90.3142C171.26 91.3455 171.89 94.1701 172.512 95.0697C174.852 94.3387 174.879 93.3158 178.287 92.2065C181.696 91.0973 181.132 89.8973 180.605 89.2151C184.067 90.9225 186.538 89.9638 186.035 89.9004C185.532 89.8369 179.622 85.7501 178.326 86.3049Z" fill="#FFC0A5"/>
<path d="M180.606 89.2153C184.068 90.9228 186.538 89.9641 186.035 89.9006C183.596 90.5446 184.274 89.6227 180.366 88.5881C178.63 88.1284 177.86 87.6685 176.573 88.5879C175.146 89.6076 173.355 91.3462 172.781 91.6913L172.321 89.6227C172.024 89.8017 171.45 90.17 171.22 90.3145C171.26 91.3458 171.891 94.1704 172.513 95.0699C174.852 94.3389 174.879 93.316 178.288 92.2068C181.696 91.0976 181.133 89.8976 180.606 89.2153Z" fill="#F1A089"/>
<path d="M160.586 90.5547C159.924 89.5681 152.243 78.7094 149.515 74.8369L163.542 102.685L173.239 95.1389L171.745 89.2777C162.347 91.9023 161.248 91.5412 160.586 90.5547Z" fill="#108DC1"/>
<path d="M171.745 89.2781L173.239 95.1392" stroke="white" stroke-width="0.42667"/>
<path d="M141.301 65.8125L148.088 68.186C146.863 69.1036 147.046 70.9135 147.321 71.956C150.773 73.4978 151.443 78.7639 148.984 78.8237C146.525 78.8834 140.652 77.4811 138.91 73.037C139.915 71.36 140.998 66.7096 141.301 65.8125Z" fill="#FECBB5"/>
<path d="M141.3 65.8122L148.087 68.1858C147.022 68.9835 147.022 70.4555 147.22 71.5115C145.052 71.7066 142.37 67.7933 141.3 65.8122Z" fill="#F1A089"/>
<path d="M144.959 68.6064C151.247 70.7087 151.928 64.7315 152.121 56.4851L140.991 54.7355C138.339 58.0689 138.67 66.5041 144.959 68.6064Z" fill="#FECBB5"/>
<path d="M152.121 56.4851L140.991 54.7355C138.948 57.3038 138.675 62.9008 141.534 66.2963C141.688 65.775 141.926 64.615 141.647 64.1449C141.298 63.5573 138.97 61.3553 140.25 59.9499C141.53 58.5445 141.893 60.3906 141.713 62.1857C141.632 62.9837 143.275 61.4826 143.714 60.2018C144.764 57.1395 145.707 61.1328 151.99 59.9199C152.054 58.8349 152.092 57.684 152.121 56.4851Z" fill="#F1A089"/>
<path d="M153.801 56.984C154.019 52.4212 150.475 51.9706 148.518 52.3709C147.694 51.0118 145.218 49.7879 143.797 50.1625C140.44 51.0479 139.772 53.7721 139.595 54.959C135.505 57.9879 138.486 62.0427 139.611 63.0668C139.724 63.3077 140.319 65.1171 141.085 66.4292C141.759 65.6691 141.475 64.9706 141.517 64.4358C141.57 63.7672 140.72 63.5239 139.905 61.793C139.09 60.062 140.715 59.0214 141.561 59.4507C142.406 59.88 141.415 62.4612 142.168 62.1069C144.169 60.8891 143.088 57.8123 145.775 59.0293C149.632 60.7755 153.658 59.9935 153.801 56.984Z" fill="#2C257C"/>
<path d="M145.776 59.0298C149.632 60.7759 153.658 59.9939 153.802 56.9844C153.882 55.3023 153.451 54.1791 152.777 53.4513C154.079 58.4665 148.652 59.2599 145.776 59.0298Z" fill="#1D1C57"/>
<path d="M177.19 88.3011C176.248 88.9213 172.486 92.0616 170.904 93.5038C171.126 94.5118 172.246 97.1804 173.017 97.9558C175.191 96.8226 175.036 95.8111 178.195 94.1166C181.354 92.4222 180.587 91.3407 179.948 90.7624C183.657 91.8308 185.919 90.4504 185.413 90.4768C184.907 90.5033 178.367 87.5259 177.19 88.3011Z" fill="#FECBB5"/>
<path d="M179.948 90.7617C183.657 91.8301 185.919 90.4497 185.413 90.4761C183.127 91.5412 180.854 90.7255 179.748 90.607C181.065 92.5295 179.98 92.8335 178.144 93.9309C176.454 94.9412 175.043 96.2964 173.973 96.3038L171.601 92.8816C171.341 93.1103 171.106 93.3203 170.905 93.5031C171.127 94.5111 172.247 97.1797 173.018 97.9551C175.191 96.822 175.037 95.8104 178.196 94.116C181.354 92.4215 180.588 91.34 179.948 90.7617Z" fill="#F1A089"/>
<path d="M145.083 121.917C130.196 85.7923 130.014 86.7314 138.909 73.0368C151.823 83.4351 151.435 75.6624 148.138 72.398C149.106 72.1258 150.091 71.9768 150.091 71.9768C161.054 78.6373 170.367 102.724 170.367 102.724C159.679 110.654 154.255 118.869 145.083 121.917Z" fill="#12AAE4"/>
<path d="M145.083 121.916C154.255 118.869 159.679 110.654 170.367 102.724" stroke="white" stroke-width="0.42667"/>
<path d="M151.405 86.6346C146.716 77.1648 141.406 78.2451 139.338 79.854C131.178 85.0256 143.015 113.527 150.091 111.688C155.753 110.217 165.595 104.18 169.809 101.345C169.159 99.7791 167.965 97.015 166.358 93.7599C163.213 94.7559 156.852 96.61 156.576 96.0583C156.231 95.3688 155.312 94.5643 151.405 86.6346Z" fill="#108DC1"/>
<path d="M138.909 73.0369C151.823 83.4352 151.435 75.6625 148.138 72.3981" stroke="white" stroke-width="0.42667"/>
<path d="M137.216 81.8425C142.526 75.2921 146.797 79.827 149.135 83.8357C150.903 86.8666 155.609 97.5388 156.59 97.6562C157.57 97.7735 164.867 94.5643 170.825 92.3814L173.584 98.5868C161.493 105.634 150.456 112.635 147.369 109.479C142.849 104.857 133.224 87.0162 137.216 81.8425Z" fill="#12AAE4"/>
<path d="M173.584 98.5867L170.825 92.3813" stroke="white" stroke-width="0.42667"/>
<path d="M26.5996 187.332C30.7326 186.143 27.9575 177.226 27.9575 177.226L39.7834 177.224C39.7834 177.224 39.0641 181.54 39.163 185.6C39.2169 187.812 39.9676 191.899 39.4942 193.351C38.352 196.346 23.7869 193.768 26.5996 187.332Z" fill="#FECBB5"/>
<path d="M39.7833 177.224C39.7833 177.224 39.0711 182.758 39.1629 185.6C39.2344 187.812 39.9676 191.899 39.4941 193.351C39.2826 193.444 39.0611 193.53 38.8312 193.609C40.2475 190.402 38.2264 187.367 38.43 185.86C38.5824 184.732 39.3973 182.511 37.8237 183.211C36.25 183.911 32.7096 182.009 28.8089 182.734C28.6358 181.686 28.1198 177.652 28.1198 177.652L39.7833 177.224Z" fill="#F1A089"/>
<path d="M14.921 191.515C17.2312 191.099 22.1997 188.547 27.0226 187.165C28.7247 188.5 28.5437 190.923 29.086 192.042C29.6283 193.16 29.9547 193.76 34.7562 193.819C39.5578 193.878 39.1079 193.468 39.5134 193.372C39.919 193.276 39.9509 194.792 39.6477 194.789C39.3444 194.785 18.5191 194.895 16.4475 194.819C14.3759 194.743 13.0959 191.947 14.921 191.515Z" fill="#12AAE4"/>
<path d="M59.0033 183.606C62.3302 180.881 56.258 173.786 56.258 173.786L67.121 169.112C67.121 169.112 68.1653 173.361 69.8601 177.051C70.7839 179.062 73.0881 182.52 73.2269 184.041C73.3608 187.243 58.9622 190.629 59.0033 183.606Z" fill="#FECBB5"/>
<path d="M67.1207 169.113C67.1207 169.113 68.6528 174.477 69.8598 177.051C70.7996 179.056 73.0878 182.52 73.2266 184.041C73.0691 184.21 72.8996 184.377 72.7195 184.54C72.7534 181.034 69.6977 179.045 69.2893 177.58C68.9837 176.484 68.3048 172.842 67.1357 174.107C65.9667 175.372 62.4554 176.177 59.1585 178.384C58.5855 177.49 56.575 174.113 56.575 174.113L67.1207 169.113Z" fill="#F1A089"/>
<path d="M49.9269 192.063C51.8846 190.768 55.4408 186.461 59.3252 183.286C61.4162 183.839 62.2074 186.137 63.1475 186.95C64.0876 187.764 64.6243 188.185 69.0585 186.342C73.4927 184.5 72.9174 184.301 73.2521 184.052C73.5867 183.804 74.2151 185.184 73.9351 185.301C73.655 185.417 54.5675 193.746 52.6344 194.495C50.7013 195.243 48.4211 193.181 49.9269 192.063Z" fill="#12AAE4"/>
<path d="M50.3474 49.4937C52.3265 48.4617 52.3264 46.0484 51.8552 45.1494L56.5673 40.1069L62.2939 49.067C61.5085 51.725 59.0649 57.2044 54.9181 57.5796C49.7347 58.0487 47.8735 50.7836 50.3474 49.4937Z" fill="#FECBB5"/>
<path d="M51.8552 45.1494L56.5674 40.1069L57.831 42.1336C56.8653 44.8231 54.1871 49.9392 51.2004 48.8878C52.3738 47.5737 52.2911 45.981 51.8552 45.1494Z" fill="#F1A089"/>
<path d="M49.1402 46.3919C44.987 44.5738 43.5028 36.8418 43.4237 33.2055C49.4754 30.9279 60.057 30.5682 58.3958 38.4801C56.7345 46.3919 52.7 47.9503 49.1402 46.3919Z" fill="#FECBB5"/>
<path d="M43.4237 33.2055C49.4754 30.9279 60.057 30.5682 58.3958 38.4801C58.119 39.7982 57.7764 40.9399 57.3811 41.9203C57.1342 41.6358 56.6191 40.8536 56.5338 40.0003C56.4271 38.9336 59.2005 36.9069 57.4938 35.5202C55.7871 34.1335 56.2138 38.0802 55.0405 37.9736C53.8671 37.8669 53.4404 34.6669 52.9071 35.4136C51.7338 37.1202 49.2804 36.6936 48.0004 36.5869C46.9764 36.5016 44.9887 37.6891 44.1229 38.2936C43.6654 36.3773 43.4524 34.5227 43.4237 33.2055Z" fill="#F1A089"/>
<path d="M27.7868 130.202C30.3447 122.446 37.5386 104.504 41.5185 88.6495L58.5705 87.4673C52.8469 104.885 46.4968 125.355 46.0231 126.3C45.431 127.483 43.1763 176.043 43.1763 183.255C31.808 180.772 18.9532 184.2 20.019 181.363C21.0848 178.526 24.5895 139.896 27.7868 130.202Z" fill="#0B1F83"/>
<path d="M20.2769 180.268C24.3202 181.655 37.7603 179.415 41.6004 181.363C41.6004 178.988 44.2671 128.44 44.4804 126.301C44.6511 124.589 52.8716 99.7731 56.9605 87.5791" stroke="#4B4FE2" stroke-width="0.42667"/>
<path d="M58.5705 87.4673C52.8469 104.885 46.4968 125.355 46.0231 126.3C45.5767 127.191 44.1857 155.005 43.5278 171.735C39.0097 159.894 29.6746 135.51 28.4803 132.694C26.6708 128.428 46.0804 96.1997 54.8271 87.7268L58.5705 87.4673Z" fill="#1A1454"/>
<path d="M67.56 120.135C74.1441 111.597 73.5926 96.7948 72.8828 89.6862C68.0327 88.7779 59.8211 87.6251 56.3196 88.8572C51.9427 90.3974 27.0433 126.928 29.764 133.562C34.2592 145.884 47.5655 178.918 50.4045 182.828C53.9143 178.651 70.5292 173.084 69.8194 170.123C69.1096 167.161 50.2531 134.984 50.8445 134.51C51.436 134.036 62.4318 126.785 67.56 120.135Z" fill="#0B1F83"/>
<path d="M49.3529 181.015C53.6539 177.175 66.3473 172.801 67.9473 170.123C65.4939 165.761 50.9871 138.139 48.7471 134.51C47.1471 131.948 76.054 125.743 71.4673 89.4319" stroke="#4B4FE2" stroke-width="0.42667"/>
<path d="M50.8446 134.51C50.9565 134.42 51.4414 134.088 52.1888 133.562C50.0815 133.771 45.0137 133.697 41.6003 131.734C43.6484 133.955 49.5126 136.489 52.1888 137.478C51.259 135.702 50.7384 134.595 50.8446 134.51Z" fill="#021575"/>
<path d="M33.1836 78.3653C35.5714 67.5655 42.5603 51.8404 46.187 50.9871L44.5256 78.7206C42.6949 78.6022 37.0996 78.3653 33.1836 78.3653Z" fill="#EC6C47"/>
<path d="M45.4136 51.3714C46.5436 50.4211 49.1667 49.7005 50.3438 49.5026C49.6376 51.6407 49.136 55.1539 52.9028 56.2575C57.729 57.6714 61.0101 50.7422 62.1872 48.9604C65.2879 48.9604 71.8791 50.9517 71.8791 51.5456C71.8791 53.9213 73.9038 89.2786 73.4329 95.5741C60.2491 94.1487 43.6271 97.6008 40.0104 94.1487C41.3998 76.4139 44.3541 56.0039 45.4136 51.3714Z" fill="#EC6C47"/>
<path d="M49.7071 49.6301C48.8182 51.2557 48.2137 55.7869 52.5871 57.387C56.199 58.7084 60.4805 54.7203 63.2538 49.0208" stroke="white" stroke-width="0.213335"/>
<path d="M43.0938 80.4272L44.4572 56.6404C43.5512 62.266 42.3391 71.0724 41.3145 80.4272H43.0938Z" fill="#D3492B"/>
<path d="M63.1472 60.6937C64.4272 51.819 69.5018 50.897 71.8791 51.5454C71.8791 53.1944 72.8545 70.7328 73.2938 83.4139L73.271 83.4427C72.5195 84.3922 71.8034 85.297 70.2939 85.7138C68.3739 86.2439 44.7079 83.6595 43.7337 82.7739C42.795 81.9205 41.6221 81.8494 41.153 81.9205C41.4116 79.4961 41.6844 77.0988 41.963 74.7738C48.3133 74.0982 61.0565 72.6191 61.2272 72.1071C61.4405 71.4671 62.1872 69.5471 63.1472 60.6937Z" fill="#D3492B"/>
<path d="M42.1881 77.7883L59.0075 78.2219C59.3609 78.231 59.6399 78.5249 59.6308 78.8782L59.6255 79.0861C59.6164 79.4395 59.3225 79.7185 58.9692 79.7094L42.1498 79.2758L42.1881 77.7883Z" fill="#1C43AE"/>
<path d="M42.1924 78.7332L59.6516 79.1832C59.6432 79.509 59.3723 79.7663 59.0466 79.7579L42.1772 79.323L42.1924 78.7332Z" fill="#05629C"/>
<path d="M42.2159 77.7883L59.2033 78.2263C59.4639 78.233 59.6697 78.4497 59.663 78.7103L42.2038 78.2602L42.2159 77.7883Z" fill="#0F2E9A"/>
<path d="M14.6747 58.5234C14.5648 57.8623 15.0845 57.2648 15.7544 57.2821L40.8389 57.9287C41.3499 57.9419 41.7798 58.3158 41.8636 58.8201L44.977 77.5424C45.0869 78.2035 44.5672 78.801 43.8973 78.7837L17.9326 78.1143L14.6747 58.5234Z" fill="#1C43AE"/>
<path d="M18.5668 78.6641L45.3598 79.358C45.5306 79.3624 45.6631 79.2101 45.6351 79.0415C45.6137 78.913 45.5041 78.8176 45.3738 78.8143L17.9221 78.1033C17.9749 78.4205 18.2453 78.6557 18.5668 78.6641Z" fill="#05629C"/>
<path d="M45.5636 78.3462L42.3619 58.9434C42.2786 58.4385 41.8485 58.0639 41.3369 58.0508L41.177 58.0466L44.5609 78.3203L45.5636 78.3462Z" fill="#0F2E9A"/>
<ellipse cx="28.9085" cy="67.7969" rx="1.00306" ry="1.7111" transform="rotate(-8.69255 28.9085 67.7969)" fill="#027AC3"/>
<path d="M42.7549 74.6182C43.3403 75.9365 44.0429 75.4571 44.277 75.577L44.0434 81.6893C42.9506 81.3697 40.2731 80.8504 38.306 81.3298C33.8571 82.5283 33.0369 80.4909 31.8657 80.4909C28.47 80.6107 26.1282 78.9328 26.9479 78.9328C27.7675 78.9328 30.9289 79.0527 32.2169 78.9328C33.5049 78.813 35.8467 76.7756 37.3689 75.577C38.8911 74.3784 38.5398 74.858 37.9542 74.019C35.2611 70.5434 37.8371 71.7418 39.7105 72.5808C41.584 73.4197 42.1694 73.2999 42.7549 74.6182Z" fill="#FECBB5"/>
<path d="M31.8657 80.491C28.47 80.6109 26.1282 78.933 26.9479 78.933C29.7888 80.9585 31.2536 80.0009 31.8657 80.2142C35.5711 82.2409 36.907 81.33 38.306 80.9609C39.705 80.5919 42.987 81.0676 42.987 80.7476C42.987 80.4916 43.4137 77.1708 43.627 75.5425C43.9141 75.6116 44.1571 75.5158 44.277 75.5772L44.0434 81.6895C42.9506 81.3699 40.2731 80.8506 38.306 81.33C33.8571 82.5284 33.0369 80.491 31.8657 80.491Z" fill="#F1A089"/>
<path d="M63.4674 64.9672C63.4674 55.9697 66.7678 49.8443 71.8579 51.4588C78.9602 53.7117 76.2922 85.1207 69.6145 85.1207C56.828 85.1207 43.4237 82.4868 43.4237 82.0125C43.4237 81.5383 43.6605 79.7597 44.2523 75.0169C45.6728 75.1354 61.2807 73.7091 61.6358 73.2348C61.9909 72.7605 63.4674 70.5453 63.4674 64.9672Z" fill="#EC6C47"/>
<path d="M45.4404 74.9912L44.8004 82.4889" stroke="white" stroke-width="0.213335"/>
<path d="M43.3048 37.6592C37.2143 35.5208 41.3883 27.0226 44.4932 27.8003C49.2146 28.9828 47.8529 26.2954 50.1541 25.484C53.9197 24.1562 55.2126 28.9177 56.1545 28.9235C62.2111 28.9606 58.9949 33.8837 59.1561 34.227C61.0261 38.2099 58.8812 37.4676 59.0321 38.5538C59.2714 40.2762 58.7278 42.1804 58.07 42.7107C57.2899 41.5899 57.0396 40.3518 56.9797 39.9212C57.9073 37.815 59.0887 35.9238 57.7894 34.9958C56.4901 34.0679 55.494 35.5342 55.2409 37.3981C55.1076 38.3796 53.2609 34.1685 52.7514 34.8425C51.4806 36.5233 49.8263 36.5471 48.7313 36.2543C45.9628 35.5138 44.9469 38.2357 43.3048 37.6592Z" fill="#05185A"/>
<path d="M45.2508 37.1202C44.593 37.5503 44.0062 37.9052 43.3052 37.6591C39.0027 36.1485 39.7727 31.1997 41.9224 28.9686C39.2845 33.3756 42.964 36.4657 45.2508 37.1202Z" fill="#312E63"/>
<path d="M40.5782 30.839C40.6641 30.6072 40.7584 30.3835 40.8591 30.1706C40.7561 30.3992 40.6626 30.622 40.5782 30.839C39.564 33.5775 39.7341 37.4528 44.6488 37.9417C41.8896 38.0325 38.5178 36.1386 40.5782 30.839Z" fill="#05185A"/>
<path d="M55.0122 27.2645C53.9746 24.4031 51.4777 24.464 49.3594 25.67C51.8983 24.3323 53.7338 25.2149 54.347 26.2937C54.9602 27.3724 55.5053 28.8393 57.1559 28.61C56.0011 28.5903 55.1615 27.6762 55.0122 27.2645Z" fill="#312E63"/>
<rect x="174.268" y="1.99387" width="58.739" height="45.0793" fill="#FDF2D6" stroke="#189BDC" stroke-width="0.213335"/>
<rect x="171.841" y="0.106667" width="63.6816" height="48.8537" stroke="#189BDC" stroke-width="0.213335"/>
<path d="M192.542 32.2262L174.577 46.861H232.699L210.507 26.1284L197.297 38.7306L192.542 32.2262Z" fill="#CDEBF7"/>
<circle cx="188.18" cy="18.7817" r="6.47038" fill="#CDEBF7"/>
<rect x="76.1606" y="42.8801" width="53.5471" height="2.13335" fill="#1A9CDD"/>
<rect x="101.334" y="20.0093" width="4.9067" height="22.8268" fill="#CDEBF7"/>
<rect x="101.654" y="21.2268" width="4.2667" height="20.4802" stroke="white" stroke-width="0.213335"/>
<rect x="96.4274" y="20.0093" width="4.9067" height="22.8268" fill="#84CDEB"/>
<rect x="96.7474" y="21.2268" width="4.2667" height="20.4802" stroke="white" stroke-width="0.213335"/>
<rect x="91.5206" y="20.0093" width="4.9067" height="22.8268" fill="#FDEAC1"/>
<rect x="91.8407" y="21.2268" width="4.2667" height="20.4802" stroke="white" stroke-width="0.213335"/>
<rect x="87.1523" y="19.8401" width="4.92933" height="22.7981" transform="rotate(20.9681 87.1523 19.8401)" fill="#84CDEB"/>
<rect x="87.0404" y="21.1014" width="4.23541" height="20.3621" transform="rotate(20.9681 87.0404 21.1014)" stroke="white" stroke-width="0.213335"/>
<path d="M0 194.775H267.095" stroke="#232056" stroke-width="0.213335"/>
</svg>
