<svg width="241" height="191" viewBox="0 0 241 191" fill="none" xmlns="http://www.w3.org/2000/svg">
<path d="M51.1104 0H218.376V128.429H51.1104V0Z" fill="white"/>
<path d="M218.378 128.429V67.0985L171.275 128.429H218.378Z" fill="#CDEBF7"/>
<path d="M106.743 128.429L210.113 0H215.493L111.865 128.429H106.743Z" fill="#CDEBF7"/>
<path d="M114.082 0H50.8722V70.2517L114.082 0Z" fill="#CDEBF7"/>
<path d="M51.1101 6.26221H218.376" stroke="#1A9CDD" stroke-width="5"/>
<path d="M51.1101 9.89587H218.376" stroke="#1A9CDD" stroke-width="5"/>
<path d="M51.1101 13.4795H218.376" stroke="#1A9CDD" stroke-width="5"/>
<path d="M51.1101 17.0638H218.376" stroke="#1A9CDD" stroke-width="5"/>
<path d="M61.1104 10H208.376V118.429H61.1104V10Z" stroke="#1A9CDD" stroke-width="20"/>
<path d="M134.743 0V128.429" stroke="#1A9CDD" stroke-width="10"/>
<path d="M65.287 114.824L114.511 57.4757M97.7844 90.4509L131.715 50.3071" stroke="#CDEBF7" stroke-width="2"/>
<path d="M143.262 62.8785L172.296 28.7557M151.963 58.7225L185.894 18.5787" stroke="#CDEBF7" stroke-width="2"/>
<path d="M58.2776 83.1549L98.4214 34.8867" stroke="#CDEBF7" stroke-width="2"/>
<path d="M81.6948 63.0836L115.148 21.984" stroke="#CDEBF7" stroke-width="2"/>
<path d="M129.963 120.909L169.629 69.2957" stroke="#CDEBF7" stroke-width="2"/>
<path d="M151.469 100.838L181.577 61.65" stroke="#CDEBF7" stroke-width="2"/>
<path d="M9.51062 190.273H241" stroke="#0B1F83"/>
<path d="M199.508 93.3168C198.495 97.9368 199.929 107.259 200.773 111.342H202.882C204.358 105.567 202.46 98.0418 202.46 94.7168C202.46 92.0568 201.054 87.775 200.351 85.9667C200.492 86.4917 200.52 88.6967 199.508 93.3168Z" fill="#0B1F83"/>
<path d="M200.984 111.167C198.805 108.192 194.741 100.527 195.922 93.6666C196.871 88.1576 197.067 85.8161 197.034 85.0471C197.014 84.94 196.995 84.8379 196.977 84.7415C197.005 84.7644 197.026 84.8585 197.034 85.0471C197.471 87.4006 198.242 92.2134 198.242 94.8916C198.242 98.3916 202.039 104.342 203.093 111.167H200.984Z" fill="#183C9F"/>
<path d="M194.867 101.892C197.905 104.552 199.789 109.184 200.351 111.167H202.25C202.671 108.542 199.929 102.592 196.977 100.492C194.614 98.8117 192.055 94.425 191.071 92.4417C191.071 94.4833 191.83 99.2317 194.867 101.892Z" fill="#0B1F83"/>
<path d="M194.656 105.567C196.681 107.107 198.031 109.942 198.453 111.167H200.351C200.14 109.242 197.82 104.692 195.711 103.642C194.023 102.802 192.195 100.375 191.492 99.2667C191.703 100.725 192.631 104.027 194.656 105.567Z" fill="#183C9F"/>
<path d="M200.985 110.992C200.212 108.367 199.256 102.277 201.618 98.9169C204.549 94.7482 206.44 88.1657 206.262 86.3567C206.26 86.3434 206.259 86.3301 206.257 86.3168C206.259 86.3298 206.26 86.3431 206.262 86.3567C206.681 90.1995 206.883 94.9106 204.781 100.317C203.094 104.657 202.672 109.242 202.672 110.992H200.985Z" fill="#183C9F"/>
<path d="M204.359 102.416C201.996 104.937 201.828 108.833 202.039 110.467H202.882C203.303 108.717 206.045 104.867 207.944 102.066C209.842 99.2664 209.631 93.8414 209.631 90.3413C209.631 93.1413 207.312 99.2664 204.359 102.416Z" fill="#0B1F83"/>
<path d="M209.21 103.817C207.017 105.497 204.922 109.067 204.148 110.642H202.25C202.039 110.117 205.414 104.167 207.523 102.417C209.632 100.666 211.741 96.1164 212.585 93.6664C213.007 95.5914 212.409 101.366 209.21 103.817Z" fill="#183C9F"/>
<path d="M210.053 109.942H192.336L195.078 124.642H207.101L210.053 109.942Z" fill="#F4BD34"/>
<path d="M192.68 111.782H207.101L204.661 124.642M192.939 113.169H205.354L203.274 124.642" stroke="#FFDD79"/>
<path d="M107.061 67.6666C105.98 68.0132 101.48 70.0409 99.5545 71.0115C99.4967 72.0495 99.8603 74.9418 100.398 75.9029C102.814 75.3922 102.938 74.3691 106.461 73.5807C109.985 72.7924 109.534 71.5355 109.07 70.8014C112.379 72.8425 114.948 72.1159 114.45 72.0045C113.951 71.8931 108.413 67.2334 107.061 67.6666Z" fill="#FECBB5"/>
<path d="M109.07 70.8014C112.379 72.8426 114.948 72.116 114.45 72.0046C111.943 72.4186 109.959 71.0116 108.918 70.5972C109.675 72.8189 108.54 72.8199 106.461 73.3873C104.548 73.9097 102.204 75.2775 101.164 74.9949L100.398 70.5972C100.084 70.7486 99.7985 70.8886 99.5545 71.0116C99.4967 72.0496 99.8603 74.9418 100.398 75.903C102.814 75.3923 102.938 74.3691 106.461 73.5808C109.985 72.7925 109.534 71.5356 109.07 70.8014Z" fill="#F1A089"/>
<path d="M88.2861 67.7093C87.421 66.8824 81.6537 53.8455 78.77 48.9354L86.5559 79.2624L101.069 77.3589L99.8207 70.1988C91.7465 69.0434 89.1512 68.5362 88.2861 67.7093Z" fill="#E36743"/>
<path d="M98.8 70.052L100.124 77.4829" stroke="white" stroke-width="2"/>
<path d="M78.7699 48.9354L86.5557 79.2624L90.8568 78.6983L85.3817 62.1343C83.2586 57.7323 80.497 51.8763 78.7699 48.9354Z" fill="#D5482A"/>
<path d="M72.4086 40.5956L78.4097 44.6498C76.9808 45.2289 76.695 47.0388 76.695 48.1248C79.6615 50.5127 78.6411 55.0187 76.2309 54.4456C73.8207 53.8725 68.8123 50.7401 68.2561 45.9642C69.6651 44.5888 71.8833 41.3916 72.4086 40.5956Z" fill="#FECBB5"/>
<path d="M72.4086 40.5955L78.4097 44.6496C77.1675 45.1531 76.7892 46.5867 76.7116 47.6662C74.5493 47.2995 72.942 42.7996 72.4086 40.5955Z" fill="#F1A089"/>
<path d="M148.929 120.874C148.929 118.324 147.185 116.347 145.934 115.96L155.537 108.375C156.672 111.591 156.957 113.34 160.42 117.049C163.396 120.236 168.453 119.163 170.69 120.236C174.355 121.993 174.441 124.564 174.038 124.564C172.114 124.467 163.23 124.564 156.766 124.564C148.681 124.564 148.929 125.68 148.929 120.874Z" fill="#FECBB5"/>
<path d="M148.929 120.874C148.929 118.324 147.185 116.347 145.934 115.96L155.537 108.375C155.997 109.679 156.317 110.741 156.766 111.791L149.296 119.628C149.013 121.204 148.918 124.338 150.809 124.262C152.701 124.186 167.19 124.23 174.198 124.262C174.184 124.453 174.121 124.564 174.038 124.564C172.114 124.467 163.23 124.564 156.766 124.564C148.681 124.564 148.929 125.68 148.929 120.874Z" fill="#F1A089"/>
<path d="M120.747 72.5882C108.993 77.8847 77.246 94.8546 64.3788 101.283L93.6679 120.084L123.915 95.0406C129.773 101.277 136.72 120.548 140.407 124.924C150.809 118.966 154.779 110.619 160.549 107.051C140.211 77.2324 132.5 67.2917 120.747 72.5882Z" fill="#0B1F83"/>
<path d="M64.4735 101.189L93.668 120.084L122.535 96.1836C109.523 92.4924 81.4318 96.0787 69.0125 98.3333C67.1813 99.258 65.8921 100.48 64.4735 101.189Z" fill="#091259"/>
<path d="M159.604 105.667C153.457 109.699 145.703 121.425 140.975 121.993C138.611 120.669 128.871 96.6497 124.426 93.0564C123.443 92.1486 102.456 110.02 92.0861 119.069" stroke="#4B4FE2" stroke-width="2"/>
<path d="M123.114 95.7042L123.915 95.0407C124.11 95.2478 124.305 95.4693 124.502 95.7042C124.887 92.8988 125.656 86.6261 125.656 83.9784C125.505 85.567 123.898 92.4575 123.114 95.7042Z" fill="#1A1454"/>
<path d="M108.882 178.341C110.03 176.322 110.43 171.205 110.333 169.947C111.59 169.947 118.194 169.485 120.516 169.485C119.936 174.131 120.226 175.873 127.427 182.432C137.307 191.432 127.882 190.562 125.334 189.691C121.498 188.38 123.696 186.581 117.271 183.594C113.93 182.04 106.554 182.432 108.882 178.341Z" fill="#FECBB5"/>
<path d="M108.882 178.341C110.03 176.322 110.43 171.205 110.333 169.947C111.59 169.947 118.194 169.485 120.516 169.485C120.413 170.312 120.337 171.046 120.323 171.732L110.715 172.773C110.443 174.254 109.798 177.482 109.391 178.541C108.882 179.865 107.116 181 117.271 183.175C121.495 184.079 122.63 188.746 125.334 189.321C127.074 189.691 128.87 190.415 131.57 189.321C130.53 190.692 126.797 190.192 125.334 189.691C121.498 188.38 123.696 186.581 117.271 183.594C113.93 182.04 106.554 182.432 108.882 178.341Z" fill="#F1A089"/>
<path d="M77.753 124.714C59.5642 124.945 63.2437 110.76 64.4732 99.676C120.643 93.0563 132.49 94.2119 131.283 111.706C130.207 127.321 128.406 164.895 128.406 171.255C120.927 169.179 105.797 173.718 99.6258 171.255C101.64 167.786 105.67 131.652 112.001 119.222C108.539 120.574 95.9422 124.483 77.753 124.714Z" fill="#0B1F83"/>
<path d="M128.469 168.045C121.022 166.531 108.067 170.976 103.528 168.612C104.19 166.342 110.526 122.066 114.876 116.886C116.389 115.089 91.1307 124.091 77.7529 122.938C67.8779 122.087 62.5824 119.723 66.4596 99.4429" stroke="#4B4FE2" stroke-width="2"/>
<path d="M112.001 119.222C111.541 119.401 110.921 119.626 110.147 119.881C112.354 118.315 118.847 113.671 118.847 108.943C119.698 113.387 112.102 121.346 110.147 123.67C110.742 121.983 111.36 120.481 112.001 119.222Z" fill="#1A1454"/>
<path d="M64.0009 104.215C52.5057 56.363 53.5931 54.8392 68.3449 45.903C76.3276 60.3569 79.5103 51.9565 76.7184 48.2091C77.5846 48.4973 78.1621 48.4973 78.7396 48.7856C84.5144 57.1453 92.4642 86.7208 92.4642 86.7208C88.5345 89.5057 84.9157 94.3317 81.9678 97.5955C79.32 100.527 72.5115 101.094 64.0009 104.215Z" fill="#EC6C47"/>
<path d="M67.6889 46.301C71.2824 52.1107 73.9301 55.5768 77.0507 54.2511C77.9963 53.8493 78.9419 51.2597 77.0507 48.3103" stroke="white" stroke-width="2"/>
<path d="M75.9154 64.0255C71.9816 51.6946 66.1439 52.0161 63.7168 53.7182C62.8007 54.3607 59.6507 55.7987 59.6507 61.3779C59.6507 68.5647 64.6272 86.2275 68.9178 86.8153C76.1891 87.8113 86.3373 86.9098 92.2748 86.1533C91.6128 83.2219 91.1329 79.7835 89.2488 75.4677C85.0822 74.5536 79.4331 72.8009 79.1305 71.9688C78.7523 70.9286 78.0903 69.8884 75.9154 64.0255Z" fill="#D5482A"/>
<path d="M75.2538 44.2567C80.8389 47.9187 83.036 42.2717 85.3409 34.2894L74.9502 29.7281C71.5113 32.2939 69.6686 40.5947 75.2538 44.2567Z" fill="#FECBB5"/>
<path d="M85.3412 34.2894L74.9505 29.7281C72.3008 31.705 70.5988 37.0865 72.5117 41.1276C72.7954 40.6594 73.3249 39.5906 73.1736 39.061C72.9845 38.3991 71.2824 35.6568 72.8899 34.6166C74.4975 33.5764 74.3772 35.4677 73.741 37.1698C73.4573 37.9263 75.4431 36.8861 76.1996 35.7513C78.0083 33.0383 77.9018 37.1698 84.332 37.6013C84.6733 36.561 85.0061 35.4499 85.3412 34.2894Z" fill="#F1A089"/>
<path d="M86.8482 35.2066C88.2317 30.8184 84.8952 29.4696 82.8866 29.3571C82.433 27.8219 80.3353 25.994 78.8556 25.9942C75.3581 25.9947 74.008 28.4765 73.5312 29.587C68.7697 31.4871 70.6324 36.2017 71.4649 37.4879C71.5135 37.7516 71.6291 39.6668 72.0383 41.1414C72.8893 40.5741 72.7921 39.8208 72.9707 39.3108C73.194 38.6733 72.4285 38.218 72.0792 36.3229C71.7299 34.4278 73.5794 33.8313 74.2928 34.4665C75.0063 35.1018 73.3782 37.3614 74.2021 37.2095C76.4636 36.537 76.2008 33.2629 78.506 35.1382C81.8134 37.8289 85.9356 38.1008 86.8482 35.2066Z" fill="#2C257C"/>
<path d="M78.5066 35.1393C81.8141 37.83 85.9363 38.1019 86.8488 35.2076C87.3589 33.5899 87.2274 32.3852 86.7575 31.5033C86.7383 36.7223 81.2489 36.1019 78.5066 35.1393Z" fill="#1D1C57"/>
<rect x="95.5758" y="81.813" width="26.545" height="2.88498" transform="rotate(-26.192 95.5758 81.813)" fill="#F4BD34"/>
<path d="M96.8495 84.4018L120.669 72.6854L120.409 72.1581L96.6877 84.073L96.8495 84.4018Z" fill="#DB9C14"/>
<path d="M125.986 49.1672C126.784 49.3632 127.257 50.1858 127.024 50.9739L120.63 72.669L117.828 71.9806L124.26 50.1592C124.478 49.4203 125.238 48.9834 125.986 49.1672V49.1672Z" fill="#F4BD34"/>
<path d="M120.63 72.669L127.259 50.1787C127.363 49.8238 127.15 49.4533 126.791 49.365L119.983 72.5099L120.63 72.669Z" fill="#DB9C14"/>
<path d="M102.78 75.3203C100.483 77.6841 97.6032 78.3676 96.4502 78.603C96.3324 79.6069 96.2449 82.0129 96.8376 83.6063C106.994 84.3347 104.838 82.1363 109.696 79.8967C114.554 77.6571 113.441 75.5856 111.524 76.815C109.606 78.0445 104.671 79.1178 104.671 77.4696C104.671 77.1698 109.327 75.2555 108.729 75.3205C108.132 75.3854 104.463 73.3655 102.78 75.3203Z" fill="#FECBB5"/>
<path d="M96.8377 83.6064C106.994 84.3349 104.838 82.1365 109.696 79.8968C112.1 78.7887 113.042 77.7217 113.147 77.0753C111.892 79.6285 108.067 79.8968 106.838 81.047C103.812 84.0526 99.9034 83.5602 98.3273 82.9382L97.6674 78.3047C97.1712 78.4495 96.7517 78.5416 96.4503 78.6032C96.3325 79.607 96.245 82.013 96.8377 83.6064Z" fill="#F1A089"/>
<path d="M61.5158 55.3865C67.7902 49.662 71.3609 54.8214 73.0865 59.1658C74.3912 62.4505 77.4715 73.7878 78.4299 74.0522C79.3883 74.3166 91.9197 76.6666 96.6061 77.5145L98.0475 85.304C87.3731 86.1695 70.066 88.0466 67.4668 84.4385C63.6611 79.1556 56.7612 59.9382 61.5158 55.3865Z" fill="#EC6C47"/>
<path d="M95.2334 77.2644L96.6062 85.4233" stroke="white" stroke-width="2"/>
<rect x="5.16089" y="41.2427" width="47.4705" height="1.89125" fill="#1A9CDD"/>
<rect x="27.4778" y="20.967" width="4.34988" height="20.2364" fill="#CDEBF7"/>
<rect x="28.1666" y="22.4519" width="2.97163" height="17.3452" stroke="white"/>
<rect x="23.1278" y="20.967" width="4.34988" height="20.2364" fill="#84CDEB"/>
<rect x="23.8168" y="22.4519" width="2.97163" height="17.3452" stroke="white"/>
<rect x="18.778" y="20.967" width="4.34988" height="20.2364" fill="#FDEAC1"/>
<rect x="19.4669" y="22.4519" width="2.97163" height="17.3452" stroke="white"/>
<rect x="14.9052" y="20.8171" width="4.36994" height="20.211" transform="rotate(20.9681 14.9052 20.8171)" fill="#84CDEB"/>
<rect x="15.0394" y="22.4592" width="2.94389" height="17.2405" transform="rotate(20.9681 15.0394 22.4592)" stroke="white"/>
<path d="M14.9029 104.147C11.4188 100.663 4.73471 90.7313 5.87127 78.8785C8.20525 82.4303 14.9029 95.2167 14.9029 104.147Z" fill="#1C43AE"/>
<path d="M21.9055 119.469C21.9055 112.163 22.9812 96.8192 27.2839 93.8966C27.4869 98.5646 30.3283 107.596 21.9055 119.469Z" fill="#1C43AE"/>
<path d="M28.5002 129.111C27.8913 124.071 28.3378 111.859 34.9948 103.335C36.0095 106.278 39.1556 117.644 28.5002 129.111Z" fill="#1C43AE"/>
<path d="M31.7476 137.533C32.4917 133.034 36.0909 121.906 44.5339 113.381C44.5339 117.136 41.794 134.996 31.7476 137.533Z" fill="#1C43AE"/>
<path d="M28.3996 129.11C23.8331 125.66 12.2442 118.983 2.42102 119.876C6.78462 123.935 12.2645 129.821 28.3996 129.11Z" fill="#1C43AE"/>
<path d="M31.7478 137.736C28.399 135.233 18.3322 130.896 4.85583 133.575C12.0608 137.127 21.5999 142.607 31.7478 137.736Z" fill="#1C43AE"/>
<path d="M21.9047 119.571C15.7145 117.17 2.86721 110.702 1 104.045C5.97247 105.06 12.2642 107.191 21.9047 119.571Z" fill="#1C43AE"/>
<path d="M47.0714 118.05C47.0376 114.735 47.863 107.435 51.435 104.756C52.0437 107.8 50.8263 115.208 47.0714 118.05Z" fill="#1C43AE"/>
<path d="M46.7678 118.354C47.4105 116.393 49.9746 112.367 55.0891 111.961C53.364 115.716 51.4359 117.441 46.7678 118.354Z" fill="#1C43AE"/>
<path d="M44.838 142.911V143.013C47.0705 137.127 46.0559 130.531 45.041 127.893C42.0372 134.063 43.6541 140.476 44.838 142.911Z" fill="#1C43AE"/>
<path d="M45.2451 142.912C46.5305 141.762 51.1309 139.868 59.2492 141.491C57.2196 142.912 51.2324 145.754 45.2451 142.912Z" fill="#1C43AE"/>
<path d="M48.7964 137.737C48.5935 134.557 49.1414 127.427 52.9571 124.342C53.363 127.285 52.8555 131.141 48.7964 137.737Z" fill="#1C43AE"/>
<path d="M49.3039 137.737C52.2806 136.587 59.127 134.591 62.6991 135.809C60.568 137.128 56.8133 140.173 49.3039 137.737Z" fill="#1C43AE"/>
<path d="M54.9865 131.14C56.5086 128.637 60.9737 123.326 66.6565 122.108C64.8299 124.544 60.3648 130.125 54.9865 131.14Z" fill="#1C43AE"/>
<path d="M41.1859 146.261C44.3318 145.889 51.6585 145.753 55.7989 148.189C53.7693 149.102 44.9406 150.726 41.1859 146.261Z" fill="#1C43AE"/>
<path d="M41.1854 146.261C39.4264 145.111 36.4361 140.619 38.5469 131.851C40.2723 135.301 42.6058 140.781 41.1854 146.261Z" fill="#1C43AE"/>
<path d="M32.6736 151.764C35.4428 140.194 41.3487 135.503 42.81 126.979C44.1901 121.783 46.3618 118.658 47.2751 117.745" stroke="#0F2E9A" stroke-width="2"/>
<path d="M34.2853 152.349C34.2177 145.922 31.7281 130.45 22.3108 119.977C13.6851 110.946 16.5265 104.755 13.5836 100.29" stroke="#0F2E9A" stroke-width="2"/>
<path d="M34.4916 151.128C34.4916 149.129 43.8507 146.948 49.3058 137.331C52.7155 132.054 57.0859 129.314 58.8449 128.604" stroke="#0F2E9A" stroke-width="2"/>
<path d="M41.3893 146.362C41.4908 146.362 51.5372 148.696 55.7993 148.189" stroke="#0F2E9A"/>
<path d="M45.4486 142.81C45.8545 142.912 53.9728 143.216 59.1483 141.491" stroke="#0F2E9A"/>
<path d="M49.5077 137.736C53.0595 137.465 60.6704 136.701 62.7 135.808" stroke="#0F2E9A"/>
<path d="M55.1912 131.038C56.7472 129.82 61.1784 126.35 66.4553 122.209" stroke="#0F2E9A"/>
<path d="M48.8998 137.636C49.6778 134.118 51.5585 126.554 52.8575 124.443" stroke="#0F2E9A"/>
<path d="M44.8399 142.708C44.6031 138.582 44.3122 129.861 45.0429 127.994" stroke="#0F2E9A"/>
<path d="M41.1872 146.159C40.2063 142.404 38.2849 134.286 38.4473 131.851" stroke="#0F2E9A"/>
<path d="M31.85 137.533C35.5709 131.884 43.3171 119.166 44.5348 113.483" stroke="#0F2E9A"/>
<path d="M28.5021 129.009C30.4978 124.849 34.5705 113.909 34.8953 103.437" stroke="#0F2E9A"/>
<path d="M22.0081 119.369C23.2258 112.942 26.0063 98.8498 27.3864 93.8976" stroke="#0F2E9A"/>
<path d="M15.0044 103.944C11.6218 97.1785 5.07978 82.7144 5.97279 78.98" stroke="#0F2E9A"/>
<path d="M21.7027 119.267C15.8507 115.14 3.53791 106.338 1.10242 104.146" stroke="#0F2E9A"/>
<path d="M28.3993 128.908C22.2429 126.98 8.42821 122.475 2.42065 119.877" stroke="#0F2E9A"/>
<path d="M31.7492 137.634C25.0516 137.465 10.2966 136.417 4.8573 133.575" stroke="#0F2E9A"/>
<path d="M47.2747 117.644C48.3233 113.991 50.6235 106.339 51.4353 104.959" stroke="#0F2E9A"/>
<path d="M46.8702 118.151C49.2043 116.359 54.0955 112.631 54.9886 112.063" stroke="#0F2E9A"/>
<path d="M49.9156 150.117H19.2818C19.0349 155.58 22.2719 173.457 34.2216 173.457C46.1713 173.457 49.3343 157.318 49.9156 150.117Z" fill="#EC6C47"/>
<path d="M43.4996 150.117C43.5167 155.194 41.1241 166.9 31.4164 173.103M40.1663 150.117C39.6455 155.362 36.583 167.05 28.4998 171.844" stroke="#D5482A"/>
<path d="M34.2866 173.457C46.1859 173.457 49.3356 157.318 49.9144 150.117H46.2011C46.4441 155.166 44.4014 166.902 34.2866 173.457Z" fill="#D5482A"/>
<path d="M54.1773 190.303L50.5329 164.78M14.3976 190.303L18.042 164.78M18.586 160.971V160.971C18.8932 158.819 20.7359 157.221 22.9093 157.221H45.6656C47.8391 157.221 49.6817 158.819 49.9889 160.971V160.971M18.586 160.971H49.9889M18.586 160.971L18.042 164.78M49.9889 160.971L50.5329 164.78M18.042 164.78H50.5329" stroke="#2F2C63" stroke-width="4"/>
</svg>
