<svg width="24" height="24" viewBox="0 0 24 24" fill="none" xmlns="http://www.w3.org/2000/svg">
<g filter="url(#filter0_i_259_311)">
<path fill-rule="evenodd" clip-rule="evenodd" d="M18.1301 14.5605C18.0846 14.3098 18.1153 14.0512 18.2182 13.8182C18.3161 13.5896 18.4788 13.3947 18.6861 13.2574C18.8934 13.1201 19.1363 13.0464 19.385 13.0455H19.4545C19.8644 13.0455 20.2575 12.8826 20.5473 12.5928C20.8372 12.303 21 11.9099 21 11.5C21 11.0901 20.8372 10.697 20.5473 10.4072C20.2575 10.1174 19.8644 9.95455 19.4545 9.95455H19.3232C19.0745 9.95355 18.8316 9.87988 18.6243 9.74258C18.417 9.60529 18.2543 9.41037 18.1564 9.18182V9.12C18.0535 8.88693 18.0228 8.6284 18.0683 8.37773C18.1137 8.12706 18.2332 7.89575 18.4114 7.71364L18.4577 7.66727C18.6014 7.52374 18.7154 7.3533 18.7932 7.16568C18.871 6.97807 18.911 6.77696 18.911 6.57386C18.911 6.37077 18.871 6.16966 18.7932 5.98205C18.7154 5.79443 18.6014 5.62399 18.4577 5.48045C18.3142 5.33676 18.1438 5.22277 17.9561 5.145C17.7685 5.06722 17.5674 5.02719 17.3643 5.02719C17.1612 5.02719 16.9601 5.06722 16.7725 5.145C16.5849 5.22277 16.4144 5.33676 16.2709 5.48045L16.2245 5.52682C16.0424 5.70496 15.8111 5.82446 15.5605 5.86991C15.3098 5.91536 15.0512 5.88468 14.8182 5.78182C14.5896 5.68387 14.3947 5.52122 14.2574 5.31391C14.1201 5.10659 14.0464 4.86365 14.0455 4.615V4.54545C14.0455 4.13557 13.8826 3.74248 13.5928 3.45265C13.303 3.16282 12.9099 3 12.5 3C12.0901 3 11.697 3.16282 11.4072 3.45265C11.1174 3.74248 10.9545 4.13557 10.9545 4.54545V4.67682C10.9536 4.92547 10.8799 5.16841 10.7426 5.37572C10.6053 5.58304 10.4104 5.74568 10.1818 5.84364H10.12C9.88693 5.9465 9.6284 5.97718 9.37773 5.93173C9.12706 5.88628 8.89575 5.76678 8.71364 5.58864L8.66727 5.54227C8.52374 5.39858 8.3533 5.28459 8.16568 5.20682C7.97807 5.12904 7.77696 5.08901 7.57386 5.08901C7.37077 5.08901 7.16966 5.12904 6.98205 5.20682C6.79443 5.28459 6.62399 5.39858 6.48045 5.54227C6.33676 5.6858 6.22277 5.85625 6.145 6.04387C6.06722 6.23148 6.02719 6.43259 6.02719 6.63568C6.02719 6.83878 6.06722 7.03988 6.145 7.2275C6.22277 7.41511 6.33676 7.58556 6.48045 7.72909L6.52682 7.77545C6.70496 7.95757 6.82446 8.18888 6.86991 8.43955C6.91536 8.69021 6.88468 8.94875 6.78182 9.18182C6.69351 9.42193 6.535 9.62993 6.32691 9.77876C6.11882 9.92759 5.87077 10.0104 5.615 10.0164H5.54545C5.13557 10.0164 4.74248 10.1792 4.45265 10.469C4.16282 10.7588 4 11.1519 4 11.5618C4 11.9717 4.16282 12.3648 4.45265 12.6546C4.74248 12.9444 5.13557 13.1073 5.54545 13.1073H5.67682C5.92547 13.1083 6.16841 13.1819 6.37572 13.3192C6.58304 13.4565 6.74568 13.6515 6.84364 13.88C6.9465 14.1131 6.97718 14.3716 6.93173 14.6223C6.88628 14.8729 6.76678 15.1042 6.58864 15.2864L6.54227 15.3327C6.39858 15.4763 6.28459 15.6467 6.20682 15.8343C6.12904 16.0219 6.08901 16.223 6.08901 16.4261C6.08901 16.6292 6.12904 16.8303 6.20682 17.018C6.28459 17.2056 6.39858 17.376 6.54227 17.5195C6.6858 17.6632 6.85625 17.7772 7.04387 17.855C7.23148 17.9328 7.43259 17.9728 7.63568 17.9728C7.83878 17.9728 8.03988 17.9328 8.2275 17.855C8.41511 17.7772 8.58556 17.6632 8.72909 17.5195L8.77545 17.4732C8.95757 17.295 9.18888 17.1755 9.43955 17.1301C9.69021 17.0846 9.94875 17.1153 10.1818 17.2182C10.4219 17.3065 10.6299 17.465 10.7788 17.6731C10.9276 17.8812 11.0104 18.1292 11.0164 18.385V18.4545C11.0164 18.8644 11.1792 19.2575 11.469 19.5473C11.7588 19.8372 12.1519 20 12.5618 20C12.9717 20 13.3648 19.8372 13.6546 19.5473C13.9444 19.2575 14.1073 18.8644 14.1073 18.4545V18.3232C14.1083 18.0745 14.1819 17.8316 14.3192 17.6243C14.4565 17.417 14.6515 17.2543 14.88 17.1564C15.1131 17.0535 15.3716 17.0228 15.6223 17.0683C15.8729 17.1137 16.1042 17.2332 16.2864 17.4114L16.3327 17.4577C16.4763 17.6014 16.6467 17.7154 16.8343 17.7932C17.0219 17.871 17.223 17.911 17.4261 17.911C17.6292 17.911 17.8303 17.871 18.018 17.7932C18.2056 17.7154 18.376 17.6014 18.5195 17.4577C18.6632 17.3142 18.7772 17.1438 18.855 16.9561C18.9328 16.7685 18.9728 16.5674 18.9728 16.3643C18.9728 16.1612 18.9328 15.9601 18.855 15.7725C18.7772 15.5849 18.6632 15.4144 18.5195 15.2709L18.4732 15.2245C18.295 15.0424 18.1755 14.8111 18.1301 14.5605ZM14.9801 11.4043C14.9801 12.8269 13.8269 13.9801 12.4044 13.9801C10.9818 13.9801 9.8286 12.8269 9.8286 11.4043C9.8286 9.98176 10.9818 8.82855 12.4044 8.82855C13.8269 8.82855 14.9801 9.98176 14.9801 11.4043Z" fill="#474747"/>
</g>
<defs>
<filter id="filter0_i_259_311" x="4" y="3" width="17" height="17.1285" filterUnits="userSpaceOnUse" color-interpolation-filters="sRGB">
<feFlood flood-opacity="0" result="BackgroundImageFix"/>
<feBlend mode="normal" in="SourceGraphic" in2="BackgroundImageFix" result="shape"/>
<feColorMatrix in="SourceAlpha" type="matrix" values="0 0 0 0 0 0 0 0 0 0 0 0 0 0 0 0 0 0 127 0" result="hardAlpha"/>
<feOffset dy="0.128544"/>
<feGaussianBlur stdDeviation="0.0642722"/>
<feComposite in2="hardAlpha" operator="arithmetic" k2="-1" k3="1"/>
<feColorMatrix type="matrix" values="0 0 0 0 0 0 0 0 0 0 0 0 0 0 0 0 0 0 0.25 0"/>
<feBlend mode="normal" in2="shape" result="effect1_innerShadow_259_311"/>
</filter>
</defs>
</svg>
