<svg width="270" height="242" viewBox="0 0 270 242" fill="none" xmlns="http://www.w3.org/2000/svg">
<circle cx="126.197" cy="19.8788" r="16.9477" fill="#CDEBF7"/>
<circle cx="126.197" cy="19.8784" r="17.9056" stroke="#1A9CDD"/>
<path d="M124.697 19.6965C124.697 20.5249 125.368 21.1965 126.197 21.1965C127.025 21.1965 127.697 20.5249 127.697 19.6965H124.697ZM127.697 11.3137C127.697 10.4853 127.025 9.81372 126.197 9.81372C125.368 9.81372 124.697 10.4853 124.697 11.3137H127.697ZM127.697 19.6965V11.3137H124.697V19.6965H127.697Z" fill="#1A9CDD"/>
<path d="M125.924 4.38867V6.75771" stroke="#1A9CDD" stroke-width="2"/>
<path d="M110.708 19.6052L113.077 19.6052" stroke="#1A9CDD" stroke-width="2"/>
<path d="M125.924 32.4525V34.8216" stroke="#1A9CDD" stroke-width="2"/>
<path d="M138.771 19.6052L141.14 19.6052" stroke="#1A9CDD" stroke-width="2"/>
<path d="M136.949 21.1963C137.777 21.1963 138.449 20.5247 138.449 19.6963C138.449 18.8679 137.777 18.1963 136.949 18.1963V21.1963ZM126.379 18.1963C125.551 18.1963 124.879 18.8679 124.879 19.6963C124.879 20.5247 125.551 21.1963 126.379 21.1963V18.1963ZM136.949 18.1963H126.379V21.1963H136.949V18.1963Z" fill="#1A9CDD"/>
<circle cx="126.197" cy="19.8787" r="2.00457" fill="#1A9CDD"/>
<path d="M122.472 227.775C122.508 224.829 124.711 217.196 124.711 213.652C123.335 212.846 115.438 212.111 112.896 210.623C110.764 218.453 109.805 217.802 97.7175 220.367C81.1324 223.888 93.8373 228.976 97.1856 229.656C102.225 230.679 100.972 227.3 109.92 228.148C114.574 228.589 122.398 233.746 122.472 227.775Z" fill="#F1B09B"/>
<path d="M122.472 227.775C122.508 224.829 124.711 217.196 124.711 213.652C123.335 212.846 115.438 212.111 112.896 210.623C112.571 211.815 112.274 212.811 111.96 213.652C115.223 215.366 122.334 215.687 123.797 216.052C124.369 216.052 122.472 224.626 121.854 227.775C121.357 230.303 120.939 230.487 116.023 229.832C119.415 230.904 122.426 231.468 122.472 227.775Z" fill="#EC8E65"/>
<path d="M104.097 234.403C107.15 233.821 114.91 230.114 120.244 228.677C122.514 230.427 122.305 233.645 123.038 235.122C123.77 236.6 124.102 237.609 130.459 237.626C136.816 237.643 136.216 237.105 136.751 236.972C137.287 236.84 137.349 238.852 136.947 238.851C136.545 238.85 108.903 238.842 106.16 238.767C103.416 238.693 101.686 235 104.097 234.403Z" fill="#0F2E9A"/>
<path d="M136.758 236.978C137.294 236.845 137.355 238.857 136.953 238.856C136.809 238.855 133.145 238.854 128.382 238.849C127.559 238.511 126.744 237.742 126.439 237.401C127.411 237.546 128.708 237.626 130.466 237.631C136.823 237.648 136.222 237.11 136.758 236.978Z" fill="#092482"/>
<path d="M143.859 228.761C149.373 227.227 146.901 218.39 146.901 218.39L160.709 215.655C160.709 215.655 159.483 221.437 160.316 226.623C160.781 229.514 161.141 235.063 160.53 236.99C159.065 240.51 138.354 237.765 143.859 228.761Z" fill="#F1B09B"/>
<path d="M160.708 215.655C160.708 215.655 159.482 221.437 160.315 226.623C160.78 229.514 161.14 235.063 160.529 236.99C160.414 237.267 160.179 237.506 159.847 237.706C160.456 235.331 160.67 229.637 159.873 228.202C159.075 226.767 159.897 219.855 159.121 219.939C158.501 220.007 150.547 222.229 147.448 222.229C147.392 220.146 146.9 218.39 146.9 218.39L160.708 215.655Z" fill="#EC8E65"/>
<path d="M127.902 234.421C130.955 233.839 138.715 230.132 144.049 228.695C146.319 230.445 146.11 233.663 146.842 235.14C147.575 236.618 147.906 237.627 154.264 237.644C160.621 237.661 160.02 237.123 160.556 236.99C161.092 236.858 161.153 238.87 160.752 238.869C160.35 238.867 132.708 238.86 129.965 238.785C127.221 238.711 125.491 235.018 127.902 234.421Z" fill="#0F2E9A"/>
<rect x="182.073" y="10.6436" width="69.8737" height="53.4517" fill="#FDF2D6" stroke="#189BDC"/>
<rect x="179.155" y="8.37476" width="75.8158" height="57.9894" stroke="#189BDC"/>
<path d="M203.67 46.6177L182.073 64.2118H251.948L225.268 39.2867L209.387 54.4373L203.67 46.6177Z" fill="#CDEBF7"/>
<circle cx="198.427" cy="30.4544" r="7.77882" fill="#CDEBF7"/>
<path d="M66.3739 38.3405C62.8522 36.957 61.7622 33.4668 61.6574 31.8946L52.6966 27.6498C51.4389 30.5321 48.7347 36.6426 47.9801 38.0261C45.3074 45.8869 52.8533 53.7478 59.7708 52.3328C66.6883 50.9179 67.4744 43.8431 66.3739 38.3405Z" fill="#FECBB5"/>
<path d="M61.6586 31.8946L52.6977 27.6498C53.5177 31.0525 57.0441 37.7519 64.59 37.3272C62.4677 35.6754 61.743 33.1619 61.6586 31.8946Z" fill="#F1A089"/>
<path d="M57.2569 32.2113C68.4507 38.1227 69.9915 24.0885 69.8342 16.3324C69.6622 7.84266 58.0951 10.8823 51.7538 13.0309C50.1817 17.6426 49.567 28.1504 57.2569 32.2113Z" fill="#FECBB5"/>
<path d="M69.8342 16.3324C69.6622 7.84266 58.0951 10.8823 51.7538 13.0309C50.5581 16.5383 49.9162 23.4562 53.0604 28.3547C53.4486 27.6758 54.1318 25.9454 53.7591 24.4549C53.2933 22.5917 50.1492 19.3022 52.8275 17.8173C55.5058 16.3324 54.4578 19.3311 54.3414 21.5437C54.3414 22.3588 56.9032 21.7766 58.5335 17.8173C59.4651 15.8377 64.4157 21.5437 69.7424 20.4956C69.8405 19.0172 69.8598 17.592 69.8342 16.3324Z" fill="#F1A089"/>
<path d="M74.2547 16.3363C75.6584 9.30199 70.2599 7.77464 67.1279 7.93921C66.1659 5.6364 62.6065 3.15761 60.3132 3.40758C54.8928 3.99843 53.2192 8.07254 52.6676 9.87417C45.6089 13.6223 49.2912 20.6148 50.7985 22.4677C50.9184 22.8681 51.6515 25.8718 52.5345 28.0881C53.7578 27.0652 53.2491 25.8593 53.4398 25.0387C53.6783 24.013 52.4151 23.4366 51.5539 20.5585C50.6928 17.6804 53.4585 16.4439 54.6714 17.308C55.8844 18.1721 53.7423 21.9488 54.9936 21.5743C58.3851 20.1505 57.4254 15.1206 61.3144 17.638C66.8943 21.25 73.3288 20.9758 74.2547 16.3363Z" fill="#05185A"/>
<path d="M61.3192 17.637C66.8991 21.249 73.3336 20.9749 74.2595 16.3353C74.777 13.742 74.37 11.8972 73.4929 10.6097C74.3439 18.7013 65.7317 18.6661 61.3192 17.637Z" fill="#312E63"/>
<path d="M41.1831 228.932C35.6735 227.382 38.1694 218.552 38.1694 218.552L24.3691 215.779C24.3691 215.779 25.5792 221.565 24.7322 226.748C24.26 229.638 23.8848 235.186 24.4901 237.115C25.9459 240.639 46.6637 237.95 41.1831 228.932Z" fill="#FECBB5"/>
<path d="M24.3683 215.779C24.3683 215.779 25.5785 221.565 24.7315 226.748C24.2593 229.638 23.8841 235.186 24.4894 237.115C24.6041 237.393 24.8384 237.632 25.1701 237.832C24.5675 235.456 24.3683 229.761 25.1701 228.329C25.972 226.896 25.8348 222.906 26.6096 222.993C27.2294 223.061 34.0953 221.614 37.611 222.389C37.6727 220.306 38.1687 218.552 38.1687 218.552L24.3683 215.779Z" fill="#F1A089"/>
<path d="M57.124 234.634C54.0724 234.044 46.323 230.316 40.9925 228.865C38.7174 230.608 38.9177 233.827 38.1816 235.302C37.4454 236.778 37.1108 237.786 30.7534 237.786C24.396 237.786 24.9983 237.249 24.4629 237.115C23.9276 236.981 23.8606 238.993 24.2622 238.993C24.6637 238.993 52.3057 239.06 55.0495 238.993C57.7932 238.926 59.5331 235.238 57.124 234.634Z" fill="#E85253"/>
<path d="M76.0873 226.042C71.1135 223.21 75.6641 215.241 75.6641 215.241L62.9387 209.225C62.9387 209.225 62.7187 215.132 60.6475 219.958C59.4926 222.649 57.7914 227.943 57.9141 229.961C58.4775 233.732 79.2329 236.115 76.0873 226.042Z" fill="#FECBB5"/>
<path d="M62.9392 209.225C62.9392 209.225 62.7192 215.132 60.648 219.959C59.4931 222.65 57.7919 227.943 57.9146 229.961C57.959 230.258 58.1287 230.547 58.4023 230.821C58.3903 228.37 59.5693 222.795 60.6927 221.598C61.8162 220.401 62.6447 216.496 63.3759 216.766C63.9608 216.982 70.9732 217.232 74.1985 218.832C74.7602 216.825 75.6646 215.242 75.6646 215.242L62.9392 209.225Z" fill="#F1A089"/>
<path d="M90.1856 235.418C87.3663 234.11 80.7437 228.624 75.9201 225.931C73.2919 227.075 72.7105 230.247 71.6405 231.502C70.5705 232.756 70.0028 233.654 63.8328 232.122C57.6627 230.59 58.3766 230.214 57.8893 229.955C57.4021 229.696 56.8522 231.632 57.2419 231.729C57.6316 231.826 84.4427 238.553 87.1217 239.149C89.8007 239.745 92.3783 236.585 90.1856 235.418Z" fill="#E85253"/>
<path d="M98.6812 44.1626C92.13 44.1626 92.6983 50.211 90.8106 51.4348C93.4754 53.7711 97.2712 55.5444 98.6812 52.7698C101.047 48.1156 107.791 50.1734 115.127 43.0906C124.597 33.9467 108.845 43.0906 111.34 39.4894C114.078 35.5403 106.223 41.0277 107.342 39.4894C110.201 35.56 106.01 38.1544 103.345 39.4894C100.68 40.8245 100.68 44.1626 98.6812 44.1626Z" fill="#FECBB5"/>
<path d="M98.6813 52.7697C101.047 48.1154 107.791 50.1732 115.127 43.0905C117.085 41.1993 117.965 40.0904 118.15 39.4893C117.306 41.0376 115.665 41.5993 114.765 42.628C110.924 47.0179 102.876 49.4873 99.3319 50.1732L92.3177 48.8013C91.8398 49.9623 91.4793 51.0011 90.8106 51.4346C93.4754 53.7709 97.2712 55.5442 98.6813 52.7697Z" fill="#F1A089"/>
<path d="M83.5849 65.7848C80.5237 46.1059 78.5147 42.9706 73.2669 40.4561C73.2669 60.0056 69.3615 76.9352 73.1493 84.946C77.5298 94.2101 81.1797 95.9593 86.0987 94.2101C91.0177 92.4608 99.3281 67.5341 100.983 51.4953C98.9954 51.0537 93.8928 50.038 89.3863 49.508C88.3923 53.1513 83.5849 65.7848 83.5849 65.7848Z" fill="#EC6C47"/>
<path d="M89.3863 49.5079C93.8928 50.0379 98.9954 51.0536 100.983 51.4952" stroke="white" stroke-width="2"/>
<path d="M94.4473 159.717C89.8016 141.92 80.9916 113.983 77.3522 101.693C69.9614 102.136 49.9649 99.6366 41.4927 99.6366C44.1403 115.249 68.9632 159.717 67.9704 162.042C64.33 170.678 50.7616 204.841 47.1212 213.81C55.0639 210.82 72.6023 219.789 79.8835 217.796C94.1139 165.977 98.0892 173.668 94.4473 159.717Z" fill="#0B1F83"/>
<path d="M80.3335 216.167C72.2382 216.738 56.119 210.565 50.8606 211.136C52.8041 207.707 67.8944 166.221 69.9522 162.042C71.5984 158.699 53.0327 119.071 43.5441 99.675" stroke="#4B4FE2" stroke-width="2"/>
<path d="M41.4931 99.6366C43.6617 112.424 60.7083 144.572 66.2592 157.063C66.9566 141.634 67.6427 108.864 64.8076 101.223C56.4418 100.599 46.7495 99.6366 41.4931 99.6366Z" fill="#09125A"/>
<path d="M59.0063 184.157C54.2517 196.015 49.1481 208.817 47.1214 213.81C48.6916 213.219 50.6368 213.095 52.8037 213.262L59.0063 184.157Z" fill="#09125A"/>
<path d="M64.8592 156.008C64.8592 165.034 52.616 199.286 50.9615 218.091C45.998 219.087 18.5334 223.76 18.5334 221.742C18.5334 214.795 36.4019 165.964 35.0784 160.986C30.1149 132.446 23.2924 124.194 30.5722 99.6366C35.315 99.6366 42.1596 100.699 63.8665 99.6366C65.8511 123.198 64.8592 144.725 64.8592 156.008Z" fill="#0B1F83"/>
<path d="M51.1874 215.938C41.8301 217.348 22.6738 220.168 20.9073 220.168C21.8218 216.51 36.1119 172.454 37.4837 160.986C38.8556 149.518 22.1648 122.684 33.9398 99.7469" stroke="#4B4FE2" stroke-width="2"/>
<path d="M32.9131 42.0565C35.8418 39.9298 45.2197 37.7414 48.3259 37.5199C49.6583 45.8275 55.1472 49.1293 61.1377 49.1293C67.1282 49.1293 65.9973 40.7026 66.4214 38.3736C73.7432 39.7028 75.9408 41.9422 76.0006 42.3588C77.0359 49.5744 79.4952 86.6551 78.1837 104.476C72.5815 111.678 49.3232 104.353 29.6876 102.027C29.6876 85.744 29.2523 44.715 32.9131 42.0565Z" fill="#EC6C47"/>
<path d="M29.6873 102.027C49.3228 104.353 72.5811 111.678 78.1833 104.476" stroke="white" stroke-width="2"/>
<path d="M48.3253 37.5199C49.6576 45.8275 55.1465 49.1293 61.137 49.1293C67.1275 49.1293 65.9967 40.7026 66.4208 38.3736" stroke="white" stroke-width="2"/>
<path d="M76.6894 49.1293C77.8175 62.6492 79.2523 89.9556 78.1837 104.476C77.6247 105.194 76.89 105.768 76.0006 106.217L76.6894 49.1293Z" fill="#D5482A"/>
<path d="M32.9126 42.0564C33.3526 41.7369 33.9381 41.416 34.6261 41.1006C38.3606 40.0474 45.8295 41.0962 45.8295 53.7171C46.0582 66.7497 42.1713 72.923 42.057 74.9807C41.9426 77.0385 50.7453 76.4669 51.7742 76.2383C52.5973 76.0554 56.0803 83.7834 57.7189 87.6703C51.9828 90.414 38.3445 96.1758 29.6802 97.2732L29.6801 97.2371C29.6423 78.8709 29.5714 44.4827 32.9126 42.0564Z" fill="#D5482A"/>
<path d="M81.8704 68.8641C81.8704 67.7596 80.9749 66.8641 79.8704 66.8641H70.6431C69.5385 66.8641 68.6431 67.7596 68.6431 68.8641V76.484C68.6431 80.1366 71.6041 83.0976 75.2567 83.0976C78.9093 83.0976 81.8704 80.1366 81.8704 76.484V68.8641Z" fill="#12AAE4"/>
<path d="M71.8704 83.0976H70.9295C75.1382 83.0308 81.3894 79.6906 81.8704 66.8641V73.0976C81.8704 78.6205 77.3932 83.0976 71.8704 83.0976Z" fill="#0F8DC2"/>
<path d="M69.0437 70.0706C66.9394 70.0706 64.4342 71.5737 64.4342 74.3795C64.4342 77.3857 66.5385 78.6883 69.0437 78.6883" stroke="#12AAE4" stroke-width="4"/>
<path d="M55.7564 73.883C54.7316 75.4188 52.1545 77.9748 50.994 79.0608C52.1127 81.1521 54.7504 85.6144 56.3509 86.7334C56.8116 85.9005 57.243 85.7716 61.4049 84.5281L61.4911 84.5024C65.7333 83.2349 62.6032 81.832 64.3029 81.5309C68.2728 80.6238 64.2713 77.8264 67.1004 77.5296C70.1802 77.2064 65.1959 74.1854 66.4871 74.4251C68.7899 74.7497 68.8975 72.5093 68.0958 71.8468C67.2941 71.1843 62.067 70.3281 60.0693 70.5737C58.0716 70.8194 57.0374 71.9631 55.7564 73.883Z" fill="#FECBB5"/>
<path d="M61.491 84.5022C65.7331 83.2347 62.603 81.8318 64.3028 81.5307C65.56 81.2434 66.0178 80.7665 66.1461 80.2395C65.8054 81.4184 63.5494 81.0398 63.5494 81.7257C63.7781 83.8978 62.5205 83.6691 61.491 84.0121C60.4614 84.3551 57.0332 85.8412 56.5759 85.2696C56.2101 84.8124 53.4664 80.2014 52.1402 77.9531C51.6967 78.393 51.2969 78.777 50.9938 79.0606C52.1126 81.1519 54.7502 85.6142 56.3508 86.7332C56.8115 85.9003 57.2429 85.7714 61.4047 84.528L61.491 84.5022Z" fill="#F1A089"/>
<path d="M19.1726 92.7003C23.1481 50.8395 27.3107 40.7994 37.2566 40.7991C53.1743 40.7985 38.5608 76.1456 39.886 76.81C40.9461 77.3416 44.3436 78.1819 51.3171 77.3816C52.003 79.668 55.8899 84.9268 57.1475 87.4418C25.5941 100.246 19.1726 97.3515 19.1726 92.7003Z" fill="#EC6C47"/>
<path d="M57.1475 87.4418C55.8899 84.9267 52.003 79.668 51.3171 77.3816" stroke="white" stroke-width="2"/>
<path d="M158.038 170.031V165.001V130.153C158.038 115.782 182.628 115.782 194.922 117.578C196.116 106.92 199.506 85.316 203.517 84.1662C250.07 75.9031 252.044 99.2557 250.428 112.548C243.266 171.468 227.868 170.031 221.064 170.031H158.038Z" fill="#027AC3"/>
<rect width="6.59542" height="60.1832" transform="matrix(-1 0 0 1 197.404 167.767)" fill="#191353"/>
<path d="M197.404 227.951H190.809L197.404 167.767V227.951Z" fill="#2C249B"/>
<path d="M197.319 227.951H190.846C189.048 229.771 184.373 231.228 178.978 231.956C173.224 232.733 168.549 232.684 168.549 238.874H220.694C220.694 232.684 217.817 232.684 209.546 231.956C202.929 231.373 198.638 229.043 197.319 227.951Z" fill="#2C249B"/>
<path d="M174.324 61.4238C175.249 67.209 172.493 69.0409 170.999 69.2338C169.149 82.771 181.888 84.0341 188.489 82.9735C190.368 78.3936 193.548 68.7709 191.236 66.9197C188.923 65.0685 186.128 60.556 185.02 58.5312C183.286 58.8687 178.718 59.9197 174.324 61.4238Z" fill="#F1B09B"/>
<path d="M185.021 58.531C183.286 58.8685 178.718 59.9194 174.324 61.4236C175.031 65.8429 173.589 67.9553 172.203 68.7924C177.727 71.0012 183.05 62.8718 185.021 58.531Z" fill="#EC8E65"/>
<path d="M131.282 130.642C145.734 128.468 160.312 126.26 170.192 125.103L215.542 128.617C189.709 133.822 139.311 145.099 138.155 148.569C136.709 152.906 133.669 201.631 134.681 215.51C121.813 216.378 108.326 211.725 104.133 207.821C109.422 191.282 114.079 133.97 131.282 130.642Z" fill="#12AAE4"/>
<path d="M104.819 205.763C110.824 209.989 126.29 215.205 133.627 213.309C134.658 213.309 130.569 173.413 134.897 146.825C134.897 145.011 181.821 133.401 205.283 127.822" stroke="white" stroke-width="3"/>
<path d="M138.155 148.568C136.709 152.906 132.044 201.944 133.056 215.823C129.512 215.823 128.94 215.823 125.739 215.252C128.203 195.576 127.454 160.428 130.054 146.206C132.653 131.985 152.726 132.603 188.588 126.528L215.542 128.617C189.709 133.822 139.311 145.099 138.155 148.568Z" fill="#0F8DC2"/>
<path d="M168.269 39.8088C166.87 49.6376 166.792 68.4382 179.169 62.4868C198.53 53.1771 185.653 30.43 168.269 39.8088Z" fill="#F1B09B"/>
<path d="M167.654 47.3433C167.711 44.635 167.957 41.9991 168.269 39.8088C184.005 31.3191 196.048 49.153 183.829 59.5157C183.225 55.6016 185.854 54.8015 187.254 52.7573C188.653 50.713 186.913 48.0044 185.626 49.0037C184.339 50.0031 185.382 53.8968 184.203 53.5254C180.178 52.5825 181.936 46.6537 179.211 47.4164C173.404 49.3911 169.087 48.1904 167.654 47.3433Z" fill="#EC8E65"/>
<path d="M210.007 168.349C231.631 161.878 225.364 140.424 219.63 130.506C216.835 129.736 207.434 128.195 191.36 128.195C140.913 132.528 133.883 137.728 131.859 148.994C129.836 160.261 128.422 215.905 128.422 223.271C136.506 225.516 155.174 218.071 162.711 218.071C163.867 208.596 160.527 177.93 158.166 166.183C172.958 168.638 197.761 170.321 210.007 168.349Z" fill="#12AAE4"/>
<path d="M128.597 220.511C136.901 222.469 152.948 215.457 160.264 216.281C162.005 216.477 157.467 173.31 155.715 164.756C155.251 162.489 216.517 174.237 217.444 131.882" stroke="white" stroke-width="3"/>
<path d="M149.944 154.966C151.923 160.82 156.25 164.883 158.165 166.183C158.302 166.86 158.435 167.584 158.565 168.349C155.691 165.571 149.944 159.006 149.944 154.966Z" fill="#0F8DC2"/>
<path d="M219.506 130.543C216.711 129.772 207.434 128.195 191.36 128.195C189.884 128.322 188.446 128.449 187.044 128.577C198.689 130.506 218.784 136.52 221.364 133.428C220.865 132.374 220.019 131.43 219.506 130.543Z" fill="#D79B16"/>
<path d="M132.868 109.591C135.947 111.289 139.461 111.537 140.913 111.308V118.177H121.807C119.125 111.308 128.511 107.189 132.868 109.591Z" fill="#F9DB97"/>
<path d="M153.704 104.246C156.482 85.7898 161.651 74.9949 166.329 71.3901C169.174 85.4727 168.433 111.274 167.751 117.493C167.623 118.659 162.208 117.775 132.472 117.775V104.967C139.849 103.669 153.495 105.637 153.704 104.246Z" fill="#F4BD34"/>
<path d="M166.283 71.4457C167.435 70.1736 170.02 69.4666 171.172 69.2257C171.652 73.6106 176.121 80.4315 180.5 79.7284C184.878 79.0254 190.466 72.3527 191.165 66.8554C194.276 66.5084 200.423 68.2172 202.44 69.1328C202.44 69.1328 214.761 114.468 219.87 131.014C215.149 136.075 185.637 124.688 166.283 125.666C167.772 100.245 163.855 88.0844 166.283 71.4457Z" fill="#F4BD34"/>
<path d="M169.832 69.5689C170.691 73.8543 173.439 82.4598 180.499 81.2829C188.588 79.9344 191.37 72.4476 192.504 66.8175" stroke="white"/>
<path d="M167.462 102.1C167.462 100.698 166.224 85.5768 165.605 78.1913C164.877 91.1102 167.321 102.677 166.434 122.71C166.949 122.092 167.462 120.747 167.462 119.825V102.1Z" fill="#D89B0E"/>
<path d="M196.42 90.0424C190.649 76.8516 198.029 70.6064 202.44 69.1327C202.44 69.1327 210.126 97.414 215.875 117.455H170.348C170.245 116.939 170.039 115.765 170.039 115.187C170.554 107.149 180.756 105.397 183.23 106.943C185.703 108.489 189.825 109.52 189.825 109.21C189.825 108.901 188.897 106.325 189.825 105.5C191.783 103.955 203.222 104.47 202.44 102.924C201.658 101.378 201.264 100.76 196.42 90.0424Z" fill="#D89B0E"/>
<g filter="url(#filter0_d_43_301)">
<path d="M184.172 107.858C187.834 109.858 192.014 110.15 193.741 109.881V117.97H171.015C167.825 109.881 178.989 105.029 184.172 107.858Z" fill="#F1B09B"/>
</g>
<path d="M184.172 107.858C187.834 109.858 192.014 110.15 193.741 109.881V117.97H191.371C190.856 115.737 189.825 111.21 189.825 110.962C189.825 110.653 186.867 110.51 184.172 108.798C181.478 107.086 169.62 106.737 171.015 117.97C167.825 109.881 178.989 105.029 184.172 107.858Z" fill="#EC8E65"/>
<path d="M228.939 115.56C226.506 90.9179 207.898 71.0644 202.397 69.1226C183.282 77.3273 209.1 103.687 205.914 104.694C203.365 105.5 194.233 105.56 189.985 107.432C190.371 108.919 191.255 113.249 192.298 117.97C225.71 117.97 228.939 119.303 228.939 115.56Z" fill="#F4BD34"/>
<path d="M191.817 106.801L193.989 117.971" stroke="white"/>
<path d="M164.376 41.3249C165.05 33.2328 171.401 33.2607 174.757 34.42C176.524 32.2158 181.173 30.633 183.589 31.6227C189.301 33.962 189.847 38.9181 189.883 41.0508C196.39 47.3378 190.195 53.7927 187.975 55.3367C187.72 55.7349 187.139 58.8446 186.1 60.462C184.843 58.8615 184.248 58.2595 184.297 57.3071C184.359 56.1166 185.913 55.8849 187.751 53.0232C189.589 50.1616 186.967 47.9507 185.377 48.5112C183.787 49.0716 184.935 53.8508 183.691 53.0518C180.447 50.4414 183.065 45.2695 178.046 46.7911C170.845 48.9743 163.931 46.6622 164.376 41.3249Z" fill="#1A1454"/>
<path d="M178.047 46.7914C170.846 48.9746 163.931 46.6625 164.376 41.3252C164.625 38.3419 165.645 36.4622 167.002 35.336C163.544 43.8728 172.924 46.5299 178.047 46.7914Z" fill="#030215"/>
<path d="M158.806 170.012L158.29 166.714C205.94 166.714 203.537 163.056 205.688 156.312C212.137 136.093 218.226 128.511 233.274 126.344C241.3 125.189 247.194 122.974 249.138 122.012C241.539 171.312 227.504 170.031 221.093 170.031C215.648 170.031 197.909 170.012 158.806 170.012Z" fill="#1C43AD"/>
<path d="M155.255 115.496H185.759V118.095H155.255V115.496Z" fill="#1C43AE"/>
<path d="M155.301 117.145H185.804V118.176H155.301V117.145Z" fill="#08299A"/>
<path d="M155.301 115.496H185.804V116.321H155.301V115.496Z" fill="#0F2E9A"/>
<path d="M107.967 87.7674C107.372 84.6829 109.735 81.8203 112.877 81.8203H150.313C152.71 81.8203 154.769 83.5204 155.223 85.8733L160.291 112.148C160.886 115.233 158.523 118.095 155.382 118.095H117.945C115.549 118.095 113.489 116.395 113.036 114.042L107.967 87.7674Z" fill="#1C43AE"/>
<path d="M114.21 118.095H160.863C161.162 118.095 161.386 117.823 161.33 117.53C161.286 117.307 161.091 117.145 160.863 117.145H114.21C113.911 117.145 113.687 117.417 113.743 117.71C113.786 117.934 113.982 118.095 114.21 118.095Z" fill="#08299A"/>
<path d="M161.175 116.321L154.789 83.6061C154.587 82.5689 153.678 81.8204 152.622 81.8204L159.423 116.321H161.175Z" fill="#0F2E9A"/>
<ellipse cx="131.621" cy="98.649" rx="1.75191" ry="2.98855" transform="rotate(-10.1693 131.621 98.649)" fill="#0F2E9A"/>
<path d="M187.557 117.97C186.785 115.269 183.775 110.11 177.909 111.083C172.044 112.055 169.677 116.079 169.419 117.97L187.557 117.97Z" fill="#1C43AE"/>
<path d="M187.556 117.97C186.785 115.269 183.775 110.111 177.909 111.083C176.352 111.341 175.041 111.814 173.952 112.405C177.422 111.443 184.547 111.21 185.289 117.97L187.556 117.97Z" fill="#0F2E9A"/>
<rect x="57.0337" y="118.08" width="192.058" height="4.57282" rx="2.28641" fill="#312E63"/>
<path d="M79.5967 120.351H85.2785L62.4447 239.003H60.9224L79.5967 120.351Z" fill="#312E63"/>
<path d="M225.956 120.237H220.274L243.108 238.89H244.63L225.956 120.237Z" fill="#312E63"/>
<path d="M94.3405 108.157C92.7208 105.946 89.7008 100.25 90.5786 95.152C91.2835 91.058 91.429 89.3179 91.4049 88.7464C91.3901 88.6668 91.3759 88.591 91.3622 88.5193C91.3828 88.5364 91.3989 88.6062 91.4049 88.7464C91.7291 90.4955 92.3027 94.0721 92.3027 96.0624C92.3027 98.6634 95.1241 103.085 95.9078 108.157H94.3405Z" fill="#0D8BC9"/>
<path d="M89.638 103.996C91.1428 105.14 92.1459 107.247 92.4594 108.157H93.8701C93.7134 106.727 91.9892 103.345 90.4217 102.565C89.1678 101.941 87.8093 100.137 87.2869 99.3136C87.4436 100.397 88.1333 102.851 89.638 103.996Z" fill="#0D8BC9"/>
<path d="M93.2436 94.892C92.4913 98.3254 93.5571 105.253 94.1841 108.287H95.7511C96.8484 103.996 95.4377 98.4035 95.4377 95.9325C95.4377 93.9556 94.3927 90.7737 93.8702 89.4298C93.9748 89.82 93.996 91.4586 93.2436 94.892Z" fill="#0379C3"/>
<path d="M89.795 101.265C92.0521 103.241 93.4524 106.683 93.8704 108.157H95.2811C95.5945 106.207 93.5569 101.785 91.3625 100.224C89.6069 98.9756 87.7051 95.7156 86.9736 94.2417C86.9736 95.759 87.5379 99.2878 89.795 101.265Z" fill="#0379C3"/>
<path d="M96.8486 101.655C95.093 103.527 94.9676 106.423 95.1244 107.637H95.7508C96.0643 106.337 98.1019 103.475 99.5126 101.395C100.923 99.3137 100.767 95.2821 100.767 92.681C100.767 94.7619 99.043 99.3137 96.8486 101.655Z" fill="#0379C3"/>
<path d="M94.812 99.0539C93.0565 101.551 93.7671 106.077 94.3418 108.028H95.5952C95.5952 106.727 95.9087 103.32 97.1626 100.094C98.7301 96.0627 98.5733 92.5512 98.2598 89.6901C98.4166 90.9906 97.0065 95.9326 94.812 99.0539Z" fill="#0D8BC9"/>
<path d="M100.453 102.695C98.8232 103.943 97.2662 106.597 96.6915 107.767H95.2808C95.1241 107.377 97.632 102.955 99.1994 101.655C100.767 100.354 102.334 96.9726 102.961 95.1519C103.275 96.5824 102.831 100.874 100.453 102.695Z" fill="#0D8BC9"/>
<path d="M101.08 107.247H87.9137L89.9514 118.171H98.8858L101.08 107.247Z" fill="#F4BD34"/>
<path d="M88.1683 108.615H98.8853L97.0721 118.171M88.3606 109.645H97.5873L96.0415 118.171" stroke="#D79B16"/>
<path d="M0 238.954H270" stroke="#191353"/>
<defs>
<filter id="filter0_d_43_301" x="166.451" y="107.046" width="31.29" height="18.9237" filterUnits="userSpaceOnUse" color-interpolation-filters="sRGB">
<feFlood flood-opacity="0" result="BackgroundImageFix"/>
<feColorMatrix in="SourceAlpha" type="matrix" values="0 0 0 0 0 0 0 0 0 0 0 0 0 0 0 0 0 0 127 0" result="hardAlpha"/>
<feOffset dy="4"/>
<feGaussianBlur stdDeviation="2"/>
<feComposite in2="hardAlpha" operator="out"/>
<feColorMatrix type="matrix" values="0 0 0 0 0 0 0 0 0 0 0 0 0 0 0 0 0 0 0.25 0"/>
<feBlend mode="normal" in2="BackgroundImageFix" result="effect1_dropShadow_43_301"/>
<feBlend mode="normal" in="SourceGraphic" in2="effect1_dropShadow_43_301" result="shape"/>
</filter>
</defs>
</svg>
