<svg width="240" height="215" viewBox="0 0 240 215" fill="none" xmlns="http://www.w3.org/2000/svg">
<circle cx="112.176" cy="17.67" r="15.0646" fill="#CDEBF7"/>
<circle cx="112.175" cy="17.6696" r="15.8785" stroke="#1A9CDD" stroke-width="0.964"/>
<path d="M110.729 17.5081C110.729 18.3067 111.376 18.9541 112.175 18.9541C112.973 18.9541 113.621 18.3067 113.621 17.5081H110.729ZM113.621 10.0568C113.621 9.25816 112.973 8.61076 112.175 8.61076C111.376 8.61076 110.729 9.25816 110.729 10.0568H113.621ZM113.621 17.5081V10.0568H110.729V17.5081H113.621Z" fill="#1A9CDD"/>
<path d="M111.932 3.90112V6.00693" stroke="#1A9CDD" stroke-width="1.928"/>
<path d="M98.4066 17.4269L100.512 17.4269" stroke="#1A9CDD" stroke-width="1.928"/>
<path d="M111.932 28.8466V30.9524" stroke="#1A9CDD" stroke-width="1.928"/>
<path d="M123.352 17.4269L125.458 17.4269" stroke="#1A9CDD" stroke-width="1.928"/>
<path d="M121.732 18.9538C122.531 18.9538 123.178 18.3064 123.178 17.5078C123.178 16.7092 122.531 16.0618 121.732 16.0618V18.9538ZM112.337 16.0618C111.538 16.0618 110.891 16.7092 110.891 17.5078C110.891 18.3064 111.538 18.9538 112.337 18.9538V16.0618ZM121.732 16.0618H112.337V18.9538H121.732V16.0618Z" fill="#1A9CDD"/>
<circle cx="112.175" cy="17.67" r="1.78184" fill="#1A9CDD"/>
<path d="M108.864 202.466C108.896 199.848 110.854 193.063 110.854 189.912C109.631 189.196 102.611 188.543 100.352 187.22C98.4568 194.181 97.6046 193.601 86.8598 195.882C72.1175 199.011 83.4107 203.534 86.3871 204.139C90.8665 205.048 89.7528 202.044 97.7067 202.798C101.844 203.191 108.798 207.774 108.864 202.466Z" fill="#F1B09B"/>
<path d="M108.864 202.466C108.896 199.848 110.854 193.063 110.854 189.912C109.631 189.196 102.611 188.543 100.352 187.22C100.063 188.28 99.7989 189.165 99.52 189.912C102.42 191.437 108.741 191.721 110.042 192.047C110.55 192.047 108.864 199.668 108.314 202.466C107.873 204.714 107.501 204.878 103.132 204.295C106.146 205.248 108.823 205.75 108.864 202.466Z" fill="#EC8E65"/>
<path d="M92.5306 208.358C95.2445 207.841 102.142 204.546 106.884 203.268C108.902 204.824 108.716 207.685 109.367 208.998C110.017 210.311 110.312 211.208 115.963 211.223C121.614 211.238 121.08 210.76 121.557 210.642C122.033 210.524 122.087 212.313 121.731 212.312C121.374 212.311 96.8028 212.304 94.3641 212.238C91.9254 212.171 90.3877 208.889 92.5306 208.358Z" fill="#0F2E9A"/>
<path d="M121.562 210.647C122.039 210.529 122.093 212.317 121.736 212.316C121.608 212.316 118.351 212.315 114.117 212.31C113.386 212.009 112.661 211.326 112.39 211.023C113.254 211.152 114.407 211.223 115.969 211.228C121.62 211.243 121.086 210.765 121.562 210.647Z" fill="#092482"/>
<path d="M127.875 203.344C132.776 201.979 130.579 194.124 130.579 194.124L142.852 191.693C142.852 191.693 141.763 196.833 142.503 201.443C142.916 204.013 143.236 208.945 142.693 210.658C141.391 213.787 122.982 211.346 127.875 203.344Z" fill="#F1B09B"/>
<path d="M142.852 191.693C142.852 191.693 141.762 196.833 142.502 201.442C142.915 204.013 143.235 208.945 142.693 210.658C142.59 210.904 142.381 211.116 142.086 211.294C142.627 209.183 142.818 204.122 142.109 202.846C141.399 201.571 142.13 195.427 141.441 195.502C140.89 195.561 133.82 197.536 131.065 197.536C131.015 195.685 130.578 194.124 130.578 194.124L142.852 191.693Z" fill="#EC8E65"/>
<path d="M113.69 208.374C116.404 207.857 123.302 204.561 128.043 203.284C130.061 204.84 129.876 207.7 130.527 209.014C131.177 210.327 131.472 211.224 137.123 211.239C142.774 211.254 142.24 210.776 142.716 210.658C143.193 210.54 143.247 212.328 142.89 212.328C142.534 212.327 117.963 212.32 115.524 212.253C113.085 212.187 111.548 208.905 113.69 208.374Z" fill="#0F2E9A"/>
<rect x="161.88" y="9.49848" width="62.0348" height="47.4375" fill="#FDF2D6" stroke="#189BDC" stroke-width="0.964"/>
<rect x="159.287" y="7.48176" width="67.3167" height="51.471" stroke="#189BDC" stroke-width="0.964"/>
<path d="M181.04 41.4379L161.842 57.0771H223.954L200.238 34.9215L186.122 48.3887L181.04 41.4379Z" fill="#CDEBF7"/>
<circle cx="176.379" cy="27.0705" r="6.9145" fill="#CDEBF7"/>
<path d="M58.9991 34.0805C55.8687 32.8507 54.8998 29.7483 54.8067 28.3508L46.8415 24.5776C45.7235 27.1397 43.3198 32.5712 42.649 33.801C40.2733 40.7884 46.9808 47.7758 53.1297 46.5181C59.2786 45.2604 59.9773 38.9717 58.9991 34.0805Z" fill="#FECBB5"/>
<path d="M54.8076 28.3508L46.8425 24.5776C47.5713 27.6023 50.7059 33.5573 57.4133 33.1798C55.5268 31.7115 54.8827 29.4773 54.8076 28.3508Z" fill="#F1A089"/>
<path d="M50.895 28.6324C60.8451 33.8869 62.2146 21.4121 62.0749 14.5178C61.9219 6.97134 51.6401 9.67321 46.0034 11.5831C44.6059 15.6824 44.0595 25.0226 50.895 28.6324Z" fill="#FECBB5"/>
<path d="M62.0749 14.5178C61.9219 6.97134 51.6401 9.67321 46.0034 11.5831C44.9405 14.7008 44.37 20.8501 47.1648 25.2042C47.5099 24.6008 48.1171 23.0627 47.7859 21.7378C47.3718 20.0816 44.5771 17.1576 46.9578 15.8377C49.3385 14.5178 48.4069 17.1833 48.3034 19.15C48.3034 19.8746 50.5806 19.357 52.0298 15.8377C52.8579 14.078 57.2584 19.15 61.9933 18.2184C62.0805 16.9043 62.0976 15.6374 62.0749 14.5178Z" fill="#F1A089"/>
<path d="M66.0041 14.5212C67.2518 8.26849 62.4531 6.91085 59.6692 7.05713C58.814 5.01018 55.6501 2.80682 53.6117 3.02902C48.7935 3.55421 47.3059 7.17565 46.8156 8.7771C40.5412 12.1088 43.8143 18.3243 45.1542 19.9714C45.2607 20.3273 45.9124 22.9972 46.6973 24.9673C47.7846 24.058 47.3324 22.9861 47.502 22.2567C47.7139 21.3449 46.5911 20.8326 45.8256 18.2743C45.0601 15.716 47.5186 14.6168 48.5967 15.3849C49.6749 16.153 47.7709 19.5101 48.8832 19.1772C51.8978 17.9117 51.0447 13.4406 54.5016 15.6783C59.4615 18.8889 65.1811 18.6452 66.0041 14.5212Z" fill="#05185A"/>
<path d="M54.5059 15.6774C59.4658 18.888 65.1854 18.6443 66.0084 14.5203C66.4684 12.2151 66.1066 10.5753 65.327 9.43084C66.0834 16.6234 58.4281 16.5921 54.5059 15.6774Z" fill="#312E63"/>
<path d="M36.6073 203.495C31.7098 202.117 33.9285 194.268 33.9285 194.268L21.6615 191.804C21.6615 191.804 22.7372 196.947 21.9843 201.554C21.5645 204.123 21.2311 209.054 21.7691 210.769C23.0631 213.902 41.4789 211.511 36.6073 203.495Z" fill="#FECBB5"/>
<path d="M21.6607 191.804C21.6607 191.804 22.7365 196.947 21.9836 201.554C21.5638 204.123 21.2303 209.054 21.7684 210.769C21.8703 211.016 22.0786 211.228 22.3735 211.407C21.8378 209.294 21.6607 204.232 22.3735 202.959C23.0862 201.686 22.9643 198.139 23.653 198.216C24.2039 198.277 30.307 196.99 33.432 197.679C33.4868 195.828 33.9277 194.268 33.9277 194.268L21.6607 191.804Z" fill="#F1A089"/>
<path d="M50.7768 208.564C48.0643 208.039 41.1759 204.725 36.4377 203.435C34.4155 204.985 34.5935 207.846 33.9391 209.158C33.2848 210.469 32.9874 211.365 27.3363 211.365C21.6853 211.365 22.2206 210.888 21.7448 210.769C21.2689 210.65 21.2094 212.438 21.5663 212.438C21.9232 212.438 46.4939 212.498 48.9328 212.438C51.3717 212.379 52.9183 209.1 50.7768 208.564Z" fill="#E85253"/>
<path d="M67.633 200.926C63.2119 198.409 67.2568 191.326 67.2568 191.326L55.9454 185.978C55.9454 185.978 55.7499 191.228 53.9087 195.518C52.8822 197.911 51.37 202.616 51.479 204.41C51.9799 207.762 70.4291 209.88 67.633 200.926Z" fill="#FECBB5"/>
<path d="M55.9458 185.978C55.9458 185.978 55.7503 191.229 53.9092 195.519C52.8826 197.911 51.3705 202.617 51.4795 204.41C51.5189 204.674 51.6698 204.931 51.913 205.175C51.9023 202.995 52.9504 198.04 53.949 196.976C54.9476 195.912 55.684 192.441 56.3339 192.681C56.8539 192.873 63.0871 193.096 65.954 194.517C66.4534 192.734 67.2573 191.326 67.2573 191.326L55.9458 185.978Z" fill="#F1A089"/>
<path d="M80.1649 209.261C77.6588 208.098 71.7721 203.221 67.4844 200.828C65.1483 201.844 64.6314 204.664 63.6803 205.779C62.7292 206.894 62.2246 207.692 56.7401 206.33C51.2556 204.968 51.8902 204.635 51.457 204.404C51.0239 204.174 50.5352 205.895 50.8816 205.981C51.228 206.067 75.0601 212.047 77.4414 212.577C79.8227 213.107 82.1139 210.297 80.1649 209.261Z" fill="#E85253"/>
<path d="M87.7165 39.2557C81.8932 39.2557 82.3983 44.6321 80.7204 45.7199C83.0891 47.7966 86.4631 49.3729 87.7165 46.9066C89.8191 42.7695 95.8145 44.5986 102.335 38.3029C110.752 30.1749 96.7506 38.3029 98.9692 35.1018C101.403 31.5915 94.4206 36.4692 95.4154 35.1018C97.9566 31.6089 94.231 33.9151 91.8621 35.1018C89.4932 36.2885 89.4932 39.2557 87.7165 39.2557Z" fill="#FECBB5"/>
<path d="M87.7166 46.9064C89.8192 42.7693 95.8145 44.5984 102.335 38.3026C104.076 36.6216 104.858 35.636 105.022 35.1016C104.272 36.4779 102.813 36.9771 102.013 37.8916C98.599 41.7937 91.4451 43.9887 88.2949 44.5984L82.0601 43.379C81.6353 44.4109 81.3148 45.3343 80.7204 45.7196C83.0892 47.7963 86.4632 49.3726 87.7166 46.9064Z" fill="#F1A089"/>
<path d="M74.2976 58.4755C71.5766 40.9831 69.7907 38.1962 65.1261 35.9611C65.1261 53.3384 61.6546 68.3869 65.0216 75.5077C68.9153 83.7424 72.1597 85.2973 76.5321 83.7424C80.9045 82.1875 88.2916 60.0304 89.7629 45.7737C87.9959 45.3812 83.4602 44.4783 79.4544 44.0073C78.5709 47.2457 74.2976 58.4755 74.2976 58.4755Z" fill="#EC6C47"/>
<path d="M79.4544 44.0071C83.4602 44.4781 87.9959 45.381 89.7629 45.7735" stroke="white" stroke-width="1.928"/>
<path d="M83.953 141.97C79.8235 126.151 71.9923 101.319 68.7573 90.3937C62.1877 90.7874 44.4131 88.5659 36.8822 88.5659C39.2356 102.443 61.3005 141.97 60.418 144.037C57.182 151.714 45.1213 182.081 41.8854 190.053C48.9456 187.396 64.5353 195.368 71.0074 193.596C83.6566 147.535 87.1902 154.372 83.953 141.97Z" fill="#0B1F83"/>
<path d="M71.4075 192.148C64.2116 192.656 49.8835 187.169 45.2094 187.677C46.9369 184.628 60.3505 147.752 62.1796 144.037C63.6429 141.066 47.1401 105.841 38.7058 88.6001" stroke="#4B4FE2" stroke-width="1.928"/>
<path d="M36.8827 88.5659C38.8103 99.9329 53.9629 128.509 58.897 139.612C59.517 125.897 60.1268 96.7683 57.6066 89.9762C50.1705 89.421 41.555 88.5659 36.8827 88.5659Z" fill="#09125A"/>
<path d="M52.45 163.695C48.2236 174.236 43.687 185.615 41.8855 190.053C43.2813 189.528 45.0104 189.418 46.9365 189.566L52.45 163.695Z" fill="#09125A"/>
<path d="M57.6525 138.674C57.6525 146.697 46.7696 177.143 45.2989 193.859C40.887 194.744 16.474 198.898 16.474 197.104C16.474 190.929 32.3572 147.523 31.1806 143.098C26.7686 117.73 20.7042 110.395 27.1751 88.5659C31.391 88.5659 37.475 89.5099 56.7701 88.5659C58.5342 109.51 57.6525 128.644 57.6525 138.674Z" fill="#0B1F83"/>
<path d="M45.4998 191.945C37.1822 193.198 20.1544 195.705 18.5841 195.705C19.3971 192.453 32.0993 153.292 33.3187 143.099C34.5382 132.905 19.7019 109.052 30.1686 88.6641" stroke="#4B4FE2" stroke-width="1.928"/>
<path d="M29.256 37.3836C31.8593 35.4932 40.1952 33.548 42.9562 33.3511C44.1406 40.7356 49.0195 43.6705 54.3444 43.6705C59.6693 43.6705 58.6642 36.1801 59.0411 34.1099C65.5493 35.2914 67.5028 37.282 67.5559 37.6523C68.4762 44.0662 70.6622 77.0268 69.4965 92.8672C64.5167 99.2691 43.8427 92.7584 26.3889 90.6907C26.3889 76.2169 26.0019 39.7467 29.256 37.3836Z" fill="#EC6C47"/>
<path d="M26.3886 90.6907C43.8424 92.7584 64.5164 99.2691 69.4962 92.8672" stroke="white" stroke-width="1.928"/>
<path d="M42.9558 33.3511C44.1401 40.7356 49.0191 43.6705 54.344 43.6705C59.6689 43.6705 58.6637 36.1801 59.0406 34.1099" stroke="white" stroke-width="1.928"/>
<path d="M68.1682 43.6705C69.171 55.6882 70.4463 79.9606 69.4965 92.8672C68.9996 93.506 68.3465 94.0162 67.5559 94.4151L68.1682 43.6705Z" fill="#D5482A"/>
<path d="M29.2555 37.3834C29.6466 37.0994 30.1671 36.8141 30.7787 36.5338C34.0982 35.5976 40.7372 36.5298 40.7372 47.7485C40.9405 59.3329 37.4855 64.8203 37.3838 66.6495C37.2822 68.4786 45.1068 67.9705 46.0214 67.7673C46.753 67.6047 49.849 74.4741 51.3055 77.9291C46.2068 80.3679 34.0838 85.4895 26.3823 86.465L26.3822 86.4329C26.3486 70.1074 26.2856 39.5401 29.2555 37.3834Z" fill="#D5482A"/>
<path d="M72.7736 61.3628C72.7736 60.298 71.9104 59.4348 70.8456 59.4348H62.944C61.8792 59.4348 61.016 60.298 61.016 61.3628V67.9858C61.016 71.2326 63.648 73.8646 66.8948 73.8646V73.8646C70.1415 73.8646 72.7736 71.2326 72.7736 67.9858V61.3628Z" fill="#12AAE4"/>
<path d="M72.7736 59.4348V64.2246C72.7736 69.5486 68.3723 73.8646 63.0483 73.8646C66.7894 73.8052 72.346 70.8361 72.7736 59.4348Z" fill="#0F8DC2"/>
<path d="M61.3719 62.2849C59.5014 62.2849 57.2746 63.621 57.2746 66.115C57.2746 68.7872 59.1451 69.9452 61.3719 69.9452" stroke="#12AAE4" stroke-width="3.856"/>
<path d="M49.5612 65.6737C48.6503 67.0389 46.3595 69.3109 45.3279 70.2763C46.3224 72.1352 48.6669 76.1016 50.0896 77.0963C50.4992 76.356 50.8826 76.2414 54.582 75.1361L54.6587 75.1132C58.4295 73.9865 55.6472 72.7395 57.1581 72.4719C60.6868 71.6655 57.13 69.179 59.6447 68.9152C62.3823 68.6279 57.9519 65.9426 59.0996 66.1556C61.1465 66.4442 61.2421 64.4527 60.5295 63.8638C59.8169 63.2749 55.1706 62.5138 53.3949 62.7322C51.6191 62.9506 50.6999 63.9672 49.5612 65.6737Z" fill="#FECBB5"/>
<path d="M54.6586 75.113C58.4294 73.9863 55.6471 72.7393 57.1579 72.4717C58.2755 72.2163 58.6824 71.7924 58.7965 71.324C58.4936 72.3719 56.4883 72.0353 56.4883 72.645C56.6916 74.5758 55.5737 74.3725 54.6586 74.6774C53.7434 74.9822 50.6961 76.3033 50.2896 75.7952C49.9644 75.3887 47.5256 71.2901 46.3468 69.2916C45.9526 69.6826 45.5972 70.0239 45.3278 70.2761C46.3222 72.135 48.6668 76.1014 50.0895 77.0961C50.499 76.3558 50.8825 76.2412 54.5819 75.1359L54.6586 75.113Z" fill="#F1A089"/>
<path d="M17.0423 82.4004C20.5761 45.1908 24.2762 36.2663 33.117 36.266C47.2661 36.2655 34.2762 67.6851 35.4542 68.2757C36.3965 68.7482 39.4165 69.4951 45.6152 68.7838C46.2249 70.8162 49.6799 75.4906 50.7977 77.7262C22.7503 89.1075 17.0423 86.5349 17.0423 82.4004Z" fill="#EC6C47"/>
<path d="M50.7977 77.7262C49.6799 75.4906 46.2249 70.8162 45.6152 68.7838" stroke="white" stroke-width="1.928"/>
<path d="M140.478 151.139V146.668V115.691C140.478 102.917 162.336 102.917 173.264 104.514C174.325 95.0401 177.339 75.8366 180.904 74.8145C222.284 67.4695 224.039 88.2274 222.603 100.043C216.236 152.416 202.549 151.139 196.501 151.139H140.478Z" fill="#027AC3"/>
<rect width="5.8626" height="53.4962" transform="matrix(-1 0 0 1 175.471 149.126)" fill="#191353"/>
<path d="M175.471 202.623H169.608L175.471 149.126V202.623Z" fill="#2C249B"/>
<path d="M175.395 202.623H169.641C168.042 204.241 163.887 205.536 159.092 206.183C153.977 206.874 149.822 206.83 149.822 212.333H196.173C196.173 206.83 193.615 206.83 186.263 206.183C180.381 205.665 176.567 203.594 175.395 202.623Z" fill="#2C249B"/>
<path d="M154.954 54.599C155.777 59.7414 153.327 61.3698 151.999 61.5412C150.354 73.5743 161.678 74.697 167.546 73.7542C169.216 69.6832 172.043 61.1298 169.987 59.4842C167.931 57.8387 165.447 53.8277 164.462 52.0278C162.92 52.3278 158.86 53.262 154.954 54.599Z" fill="#F1B09B"/>
<path d="M164.463 52.0276C162.921 52.3276 158.861 53.2618 154.955 54.5988C155.583 58.5271 154.302 60.4048 153.07 61.1488C157.98 63.1122 162.711 55.8861 164.463 52.0276Z" fill="#EC8E65"/>
<path d="M116.695 116.126C129.541 114.193 142.5 112.231 151.282 111.203L191.593 114.327C168.631 118.953 123.832 128.977 122.804 132.061C121.519 135.917 118.817 179.228 119.717 191.565C108.278 192.336 96.2896 188.2 92.5625 184.73C97.2641 170.029 101.403 119.085 116.695 116.126Z" fill="#12AAE4"/>
<path d="M93.1721 182.901C98.5101 186.657 112.258 191.293 118.78 189.608C119.696 189.608 116.061 154.145 119.909 130.511C119.909 128.899 161.619 118.578 182.474 113.62" stroke="white" stroke-width="2.892"/>
<path d="M122.804 132.061C121.519 135.916 117.372 179.506 118.272 191.843C115.122 191.843 114.613 191.843 111.768 191.335C113.958 173.846 113.292 142.602 115.603 129.961C117.914 117.32 135.756 117.87 167.634 112.47L191.593 114.326C168.63 118.953 123.832 128.977 122.804 132.061Z" fill="#0F8DC2"/>
<path d="M149.573 35.3856C148.329 44.1223 148.259 60.8339 159.261 55.5438C176.471 47.2685 165.025 27.0488 149.573 35.3856Z" fill="#F1B09B"/>
<path d="M149.026 42.0829C149.077 39.6756 149.295 37.3326 149.573 35.3856C163.56 27.8392 174.264 43.6915 163.404 52.9028C162.866 49.4236 165.203 48.7124 166.447 46.8953C167.692 45.0782 166.145 42.6706 165.001 43.5589C163.857 44.4472 164.784 47.9082 163.736 47.5781C160.158 46.74 161.721 41.47 159.299 42.1479C154.137 43.9032 150.299 42.8359 149.026 42.0829Z" fill="#EC8E65"/>
<path d="M186.673 149.644C205.894 143.892 200.323 124.822 195.227 116.005C192.743 115.321 184.386 113.951 170.098 113.951C125.256 117.803 119.007 122.425 117.208 132.439C115.409 142.454 114.152 191.915 114.152 198.463C121.338 200.459 137.933 193.841 144.632 193.841C145.66 185.419 142.69 158.16 140.592 147.718C153.74 149.901 175.788 151.397 186.673 149.644Z" fill="#12AAE4"/>
<path d="M114.309 196.01C121.69 197.75 135.953 191.517 142.457 192.25C144.004 192.424 139.971 154.053 138.413 146.45C138.001 144.435 192.459 154.877 193.284 117.229" stroke="white" stroke-width="2.892"/>
<path d="M133.284 137.748C135.043 142.951 138.888 146.562 140.591 147.718C140.712 148.32 140.831 148.963 140.947 149.644C138.392 147.174 133.284 141.339 133.284 137.748Z" fill="#0F8DC2"/>
<path d="M195.116 116.038C192.632 115.353 184.386 113.951 170.098 113.951C168.786 114.063 167.507 114.177 166.261 114.291C176.612 116.005 194.475 121.351 196.768 118.603C196.325 117.666 195.572 116.827 195.116 116.038Z" fill="#D79B16"/>
<path d="M118.105 97.4147C120.842 98.9236 123.965 99.1444 125.256 98.9409V105.046H108.273C105.889 98.9409 114.232 95.2789 118.105 97.4147Z" fill="#F9DB97"/>
<path d="M136.626 92.6633C139.095 76.2577 143.69 66.6623 147.848 63.458C150.377 75.9758 149.718 98.9099 149.112 104.438C148.998 105.475 144.185 104.689 117.752 104.689V93.3041C124.311 92.1506 136.44 93.8998 136.626 92.6633Z" fill="#F4BD34"/>
<path d="M147.807 63.5074C148.831 62.3767 151.129 61.7483 152.153 61.5341C152.58 65.4318 156.552 71.4948 160.444 70.8699C164.336 70.245 169.303 64.3137 169.924 59.4272C172.69 59.1188 178.154 60.6377 179.947 61.4515C179.947 61.4515 190.899 101.749 195.44 116.457C191.244 120.956 165.011 110.834 147.807 111.703C149.13 89.1066 145.649 78.2974 147.807 63.5074Z" fill="#F4BD34"/>
<path d="M150.962 61.8391C151.726 65.6484 154.168 73.2977 160.443 72.2515C167.633 71.0529 170.107 64.3979 171.114 59.3934" stroke="white" stroke-width="0.964"/>
<path d="M148.855 90.7554C148.855 89.5096 147.755 76.0684 147.205 69.5035C146.557 80.987 148.73 91.2688 147.942 109.076C148.399 108.526 148.855 107.33 148.855 106.511V90.7554Z" fill="#D89B0E"/>
<path d="M174.596 80.0377C169.466 68.3125 176.026 62.7613 179.947 61.4513C179.947 61.4513 186.779 86.5903 191.888 104.404H151.42C151.329 103.946 151.145 102.902 151.145 102.389C151.603 95.2438 160.672 93.6866 162.871 95.0606C165.069 96.4347 168.733 97.3507 168.733 97.0759C168.733 96.8011 167.909 94.511 168.733 93.7782C170.474 92.4041 180.642 92.8621 179.947 91.4881C179.252 90.114 178.901 89.5644 174.596 80.0377Z" fill="#D89B0E"/>
<g filter="url(#filter0_d_43_301)">
<path d="M163.708 95.8741C166.964 97.6513 170.679 97.9114 172.214 97.6717V104.862H152.013C149.178 97.6717 159.101 93.3587 163.708 95.8741Z" fill="#F1B09B"/>
</g>
<path d="M163.708 95.8741C166.964 97.6513 170.679 97.9114 172.214 97.6717V104.862H170.108C169.649 102.877 168.733 98.853 168.733 98.6331C168.733 98.3583 166.103 98.2315 163.708 96.7095C161.314 95.1875 150.773 94.8774 152.013 104.862C149.178 97.6717 159.101 93.3587 163.708 95.8741Z" fill="#EC8E65"/>
<path d="M203.501 102.72C201.339 80.816 184.798 63.1685 179.909 61.4424C162.917 68.7355 185.867 92.166 183.035 93.0617C180.769 93.7782 172.651 93.8316 168.875 95.495C169.219 96.8171 170.005 100.666 170.932 104.862C200.631 104.862 203.501 106.047 203.501 102.72Z" fill="#F4BD34"/>
<path d="M170.504 94.9346L172.435 104.863" stroke="white" stroke-width="0.964"/>
<path d="M146.112 36.7334C146.711 29.5404 152.357 29.5652 155.34 30.5957C156.911 28.6364 161.042 27.2295 163.19 28.1092C168.268 30.1886 168.753 34.594 168.785 36.4898C174.568 42.0782 169.062 47.8158 167.089 49.1883C166.862 49.5422 166.346 52.3064 165.423 53.7441C164.305 52.3215 163.776 51.7864 163.82 50.9398C163.874 49.8815 165.256 49.6756 166.89 47.1319C168.523 44.5882 166.193 42.6229 164.779 43.1211C163.366 43.6193 164.387 47.8675 163.281 47.1573C160.397 44.8369 162.725 40.2397 158.263 41.5922C151.862 43.5329 145.716 41.4777 146.112 36.7334Z" fill="#1A1454"/>
<path d="M158.264 41.5925C151.863 43.5331 145.716 41.4779 146.112 36.7337C146.333 34.0819 147.24 32.4111 148.446 31.41C145.372 38.9983 153.71 41.3601 158.264 41.5925Z" fill="#030215"/>
<path d="M141.161 151.122L140.703 148.191C183.058 148.191 180.922 144.938 182.834 138.944C188.566 120.971 193.979 114.232 207.355 112.306C214.489 111.279 219.728 109.311 221.456 108.455C214.702 152.278 202.226 151.139 196.527 151.139C191.687 151.139 175.919 151.122 141.161 151.122Z" fill="#1C43AD"/>
<path d="M138.005 102.664H165.119V104.974H138.005V102.664Z" fill="#1C43AE"/>
<path d="M138.045 104.129H165.16V105.045H138.045V104.129Z" fill="#08299A"/>
<path d="M138.045 102.664H165.16V103.397H138.045V102.664Z" fill="#0F2E9A"/>
<path d="M96.057 78.4622C95.4835 75.4888 97.7616 72.7292 100.79 72.7292H133.302C135.612 72.7292 137.597 74.3681 138.035 76.6363L142.395 99.2406C142.968 102.214 140.69 104.974 137.662 104.974H105.15C102.84 104.974 100.855 103.335 100.417 101.066L96.057 78.4622Z" fill="#1C43AE"/>
<path d="M101.52 104.974H142.989C143.255 104.974 143.454 104.732 143.404 104.472C143.366 104.273 143.192 104.129 142.989 104.129H101.52C101.254 104.129 101.055 104.371 101.105 104.631C101.143 104.83 101.317 104.974 101.52 104.974Z" fill="#08299A"/>
<path d="M143.267 103.396L137.591 74.3167C137.411 73.3948 136.603 72.7295 135.664 72.7295L141.709 103.396H143.267Z" fill="#0F2E9A"/>
<ellipse cx="116.996" cy="87.6882" rx="1.55725" ry="2.65649" transform="rotate(-10.1693 116.996 87.6882)" fill="#0F2E9A"/>
<path d="M166.717 104.862C166.031 102.461 163.356 97.8759 158.142 98.7401C152.928 99.6044 150.824 103.182 150.595 104.862L166.717 104.862Z" fill="#1C43AE"/>
<path d="M166.717 104.862C166.031 102.462 163.355 97.876 158.141 98.7403C156.757 98.9697 155.592 99.3902 154.624 99.9157C157.708 99.0608 164.042 98.8531 164.702 104.862L166.717 104.862Z" fill="#0F2E9A"/>
<rect x="50.6967" y="104.96" width="170.719" height="4.06473" rx="2.03236" fill="#312E63"/>
<path d="M70.7526 106.978H75.8031L55.5064 212.447H54.1532L70.7526 106.978Z" fill="#312E63"/>
<path d="M200.85 106.878H195.799L216.096 212.346H217.449L200.85 106.878Z" fill="#312E63"/>
<path d="M83.8583 96.1397C82.4186 94.1745 79.7342 89.1111 80.5144 84.5794C81.141 80.9403 81.2703 79.3936 81.2489 78.8856C81.2358 78.8148 81.2231 78.7475 81.211 78.6837C81.2293 78.6989 81.2436 78.761 81.2489 78.8856C81.5371 80.4403 82.0469 83.6195 82.0469 85.3887C82.0469 87.7007 84.5548 91.6312 85.2515 96.1397H83.8583Z" fill="#0D8BC9"/>
<path d="M79.6783 92.4405C81.0158 93.4578 81.9075 95.3306 82.1862 96.1398H83.4402C83.3008 94.8682 81.7682 91.8625 80.3749 91.1689C79.2603 90.614 78.0528 89.011 77.5884 88.2788C77.7277 89.2422 78.3407 91.4232 79.6783 92.4405Z" fill="#0D8BC9"/>
<path d="M82.8832 84.3486C82.2144 87.4005 83.1619 93.5583 83.7192 96.2557H85.1121C86.0874 92.4408 84.8335 87.4699 84.8335 85.2734C84.8335 83.5163 83.9046 80.6878 83.4402 79.4933C83.5332 79.8401 83.552 81.2967 82.8832 84.3486Z" fill="#0379C3"/>
<path d="M79.8177 90.013C81.824 91.7702 83.0687 94.8298 83.4402 96.14H84.6942C84.9728 94.4059 83.1616 90.4755 81.211 89.0882C79.6505 87.9784 77.96 85.0807 77.3098 83.7705C77.3098 85.1192 77.8114 88.2559 79.8177 90.013Z" fill="#0379C3"/>
<path d="M86.0875 90.3598C84.527 92.0244 84.4156 94.5985 84.5549 95.6775H85.1117C85.3904 94.5214 87.2016 91.9782 88.4556 90.1285C89.7095 88.2789 89.5702 84.6952 89.5702 82.3832C89.5702 84.2328 88.0381 88.2789 86.0875 90.3598Z" fill="#0379C3"/>
<path d="M84.2773 88.048C82.7169 90.2676 83.3485 94.2905 83.8593 96.0246H84.9735C84.9735 94.8685 85.2521 91.8398 86.3667 88.9728C87.76 85.3891 87.6207 82.2679 87.342 79.7246C87.4814 80.8806 86.2279 85.2735 84.2773 88.048Z" fill="#0D8BC9"/>
<path d="M89.2918 91.2843C87.8428 92.3941 86.4588 94.7524 85.9479 95.7928H84.694C84.5546 95.446 86.7839 91.5155 88.1772 90.3595C89.5705 89.2034 90.9637 86.1978 91.521 84.5793C91.7997 85.851 91.4049 89.6659 89.2918 91.2843Z" fill="#0D8BC9"/>
<path d="M89.8492 95.3307H78.1456L79.9569 105.041H87.8986L89.8492 95.3307Z" fill="#F4BD34"/>
<path d="M78.3718 96.5466H87.898L86.2863 105.041M78.5427 97.4627H86.7443L85.3702 105.041" stroke="#D79B16" stroke-width="0.964"/>
<path d="M0 212.404H240" stroke="#191353" stroke-width="0.964"/>
<defs>
<filter id="filter0_d_43_301" x="147.656" y="95.1522" width="28.4143" height="17.422" filterUnits="userSpaceOnUse" color-interpolation-filters="sRGB">
<feFlood flood-opacity="0" result="BackgroundImageFix"/>
<feColorMatrix in="SourceAlpha" type="matrix" values="0 0 0 0 0 0 0 0 0 0 0 0 0 0 0 0 0 0 127 0" result="hardAlpha"/>
<feOffset dy="3.856"/>
<feGaussianBlur stdDeviation="1.928"/>
<feComposite in2="hardAlpha" operator="out"/>
<feColorMatrix type="matrix" values="0 0 0 0 0 0 0 0 0 0 0 0 0 0 0 0 0 0 0.25 0"/>
<feBlend mode="normal" in2="BackgroundImageFix" result="effect1_dropShadow_43_301"/>
<feBlend mode="normal" in="SourceGraphic" in2="effect1_dropShadow_43_301" result="shape"/>
</filter>
</defs>
</svg>
